  0
SECTION
  2
HEADER
  9
$ACADVER
  1
AC1014
  9
$HANDSEED
  5
FFFF
  9
$MEASUREMENT
 70
     1
  0
ENDSEC
  0
SECTION
  2
TABLES
  0
TABLE
  2
VPORT
  5
8
330
0
100
AcDbSymbolTable
 70
     4
  0
VPORT
  5
2E
330
8
100
AcDbSymbolTableRecord
100
AcDbViewportTableRecord
  2
*ACTIVE
 70
     0
 10
0.0
 20
0.0
 11
1.0
 21
1.0
 12
210.0
 22
148.5
 13
0.0
 23
0.0
 14
10.0
 24
10.0
 15
10.0
 25
10.0
 16
0.0
 26
0.0
 36
1.0
 17
0.0
 27
0.0
 37
0.0
 40
341.0
 41
1.24
 42
50.0
 43
0.0
 44
0.0
 50
0.0
 51
0.0
 71
     0
 72
   100
 73
     1
 74
     3
 75
     0
 76
     0
 77
     0
 78
     0
  0
ENDTAB
  0
TABLE
  2
LTYPE
  5
5
330
0
100
AcDbSymbolTable
 70
     1
  0
LTYPE
  5
14
330
5
100
AcDbSymbolTableRecord
100
AcDbLinetypeTableRecord
  2
BYBLOCK
 70
     0
  3

 72
    65
 73
     0
 40
0.0
  0
LTYPE
  5
15
330
5
100
AcDbSymbolTableRecord
100
AcDbLinetypeTableRecord
  2
BYLAYER
 70
     0
  3

 72
    65
 73
     0
 40
0.0
  0
LTYPE
  5
16
330
5
100
AcDbSymbolTableRecord
100
AcDbLinetypeTableRecord
  2
CONTINUOUS
 70
     0
  3
Solid line
 72
    65
 73
     0
 40
0.0
  0
ENDTAB
  0
TABLE
  2
LAYER
  5
2
100
AcDbSymbolTable
 70
2
  0
LAYER
  5
50
100
AcDbSymbolTableRecord
100
AcDbLayerTableRecord
  2
0
 70
0
  6
CONTINUOUS
  0
LAYER
  5
51
100
AcDbSymbolTableRecord
100
AcDbLayerTableRecord
  2
Layer_1
 70
0
  6
CONTINUOUS
  0
ENDTAB
  0
TABLE
  2
STYLE
  5
3
330
0
100
AcDbSymbolTable
 70
     1
  0
STYLE
  5
11
330
3
100
AcDbSymbolTableRecord
100
AcDbTextStyleTableRecord
  2
STANDARD
 70
     0
 40
0.0
 41
1.0
 50
0.0
 71
     0
 42
2.5
  3
txt
  4

  0
ENDTAB
  0
TABLE
  2
VIEW
  5
6
330
0
100
AcDbSymbolTable
 70
     0
  0
ENDTAB
  0
TABLE
  2
UCS
  5
7
330
0
100
AcDbSymbolTable
 70
     0
  0
ENDTAB
  0
TABLE
  2
APPID
  5
9
330
0
100
AcDbSymbolTable
 70
     2
  0
APPID
  5
12
330
9
100
AcDbSymbolTableRecord
100
AcDbRegAppTableRecord
  2
ACAD
 70
     0
  0
ENDTAB
  0
TABLE
  2
DIMSTYLE
  5
A
330
0
100
AcDbSymbolTable
 70
     1
  0
DIMSTYLE
105
27
330
A
100
AcDbSymbolTableRecord
100
AcDbDimStyleTableRecord
  2
ISO-25
 70
     0
  3

  4

  5

  6

  7

 40
1.0
 41
2.5
 42
0.625
 43
3.75
 44
1.25
 45
0.0
 46
0.0
 47
0.0
 48
0.0
140
2.5
141
2.5
142
0.0
143
0.03937007874016
144
1.0
145
0.0
146
1.0
147
0.625
 71
     0
 72
     0
 73
     0
 74
     0
 75
     0
 76
     0
 77
     1
 78
     8
170
     0
171
     3
172
     1
173
     0
174
     0
175
     0
176
     0
177
     0
178
     0
270
     2
271
     2
272
     2
273
     2
274
     3
340
11
275
     0
280
     0
281
     0
282
     0
283
     0
284
     8
285
     0
286
     0
287
     3
288
     0
  0
ENDTAB
  0
TABLE
  2
BLOCK_RECORD
  5
1
330
0
100
AcDbSymbolTable
 70
     1
  0
BLOCK_RECORD
  5
1F
330
1
100
AcDbSymbolTableRecord
100
AcDbBlockTableRecord
  2
*MODEL_SPACE
  0
BLOCK_RECORD
  5
1B
330
1
100
AcDbSymbolTableRecord
100
AcDbBlockTableRecord
  2
*PAPER_SPACE
  0
ENDTAB
  0
ENDSEC
  0
SECTION
  2
BLOCKS
  0
BLOCK
  5
20
330
1F
100
AcDbEntity
  8
0
100
AcDbBlockBegin
  2
*MODEL_SPACE
 70
     0
 10
0.0
 20
0.0
 30
0.0
  3
*MODEL_SPACE
  1

  0
ENDBLK
  5
21
330
1F
100
AcDbEntity
  8
0
100
AcDbBlockEnd
  0
BLOCK
  5
1C
330
1B
100
AcDbEntity
 67
     1
  8
0
100
AcDbBlockBegin
  2
*PAPER_SPACE
  1

  0
ENDBLK
  5
1D
330
1B
100
AcDbEntity
 67
     1
  8
0
100
AcDbBlockEnd
  0
ENDSEC
  0
SECTION
  2
ENTITIES
  0
LWPOLYLINE
  5
100
100
AcDbEntity
  8
Layer_1
 62
7
100
AcDbPolyline
 90
4
 70
1
 10
45.687957
 20
145.657069
 30
0.0
 10
48.788460
 20
145.657069
 30
0.0
 10
48.788460
 20
145.207662
 30
0.0
 10
45.687957
 20
145.207662
 30
0.0
  0
LWPOLYLINE
  5
101
100
AcDbEntity
  8
Layer_1
 62
7
100
AcDbPolyline
 90
4
 70
1
 10
45.687957
 20
150.871503
 30
0.0
 10
48.788460
 20
150.871503
 30
0.0
 10
48.788460
 20
150.422097
 30
0.0
 10
45.687957
 20
150.422097
 30
0.0
  0
LWPOLYLINE
  5
102
100
AcDbEntity
  8
Layer_1
 62
7
100
AcDbPolyline
 90
4
 70
1
 10
45.687957
 20
156.085925
 30
0.0
 10
48.788460
 20
156.085925
 30
0.0
 10
48.788460
 20
155.636518
 30
0.0
 10
45.687957
 20
155.636518
 30
0.0
  0
LWPOLYLINE
  5
103
100
AcDbEntity
  8
Layer_1
 62
7
100
AcDbPolyline
 90
4
 70
1
 10
45.687957
 20
161.300315
 30
0.0
 10
48.788460
 20
161.300315
 30
0.0
 10
48.788460
 20
160.850908
 30
0.0
 10
45.687957
 20
160.850908
 30
0.0
  0
LWPOLYLINE
  5
104
100
AcDbEntity
  8
Layer_1
 62
7
100
AcDbPolyline
 90
4
 70
1
 10
45.687957
 20
140.442653
 30
0.0
 10
48.788460
 20
140.442653
 30
0.0
 10
48.788460
 20
139.993247
 30
0.0
 10
45.687957
 20
139.993247
 30
0.0
  0
LWPOLYLINE
  5
105
100
AcDbEntity
  8
Layer_1
 62
7
100
AcDbPolyline
 90
4
 70
1
 10
45.687957
 20
130.013823
 30
0.0
 10
48.788460
 20
130.013823
 30
0.0
 10
48.788460
 20
129.564416
 30
0.0
 10
45.687957
 20
129.564416
 30
0.0
  0
LWPOLYLINE
  5
106
100
AcDbEntity
  8
Layer_1
 62
7
100
AcDbPolyline
 90
4
 70
1
 10
45.687957
 20
124.799407
 30
0.0
 10
48.788460
 20
124.799407
 30
0.0
 10
48.788460
 20
124.350001
 30
0.0
 10
45.687957
 20
124.350001
 30
0.0
  0
LWPOLYLINE
  5
107
100
AcDbEntity
  8
Layer_1
 62
7
100
AcDbPolyline
 90
4
 70
1
 10
45.687957
 20
119.584992
 30
0.0
 10
48.788460
 20
119.584992
 30
0.0
 10
48.788460
 20
119.135586
 30
0.0
 10
45.687957
 20
119.135586
 30
0.0
  0
LWPOLYLINE
  5
108
100
AcDbEntity
  8
Layer_1
 62
7
100
AcDbPolyline
 90
4
 70
1
 10
45.687957
 20
114.370577
 30
0.0
 10
48.788460
 20
114.370577
 30
0.0
 10
48.788460
 20
113.921170
 30
0.0
 10
45.687957
 20
113.921170
 30
0.0
  0
LWPOLYLINE
  5
109
100
AcDbEntity
  8
Layer_1
 62
7
100
AcDbPolyline
 90
4
 70
1
 10
45.687957
 20
109.156161
 30
0.0
 10
48.788460
 20
109.156161
 30
0.0
 10
48.788460
 20
108.706755
 30
0.0
 10
45.687957
 20
108.706755
 30
0.0
  0
LWPOLYLINE
  5
10a
100
AcDbEntity
  8
Layer_1
 62
7
100
AcDbPolyline
 90
4
 70
1
 10
45.687957
 20
103.941746
 30
0.0
 10
48.788460
 20
103.941746
 30
0.0
 10
48.788460
 20
103.492339
 30
0.0
 10
45.687957
 20
103.492339
 30
0.0
  0
LWPOLYLINE
  5
10b
100
AcDbEntity
  8
Layer_1
 62
7
100
AcDbPolyline
 90
4
 70
1
 10
45.687957
 20
135.228238
 30
0.0
 10
48.788460
 20
135.228238
 30
0.0
 10
48.788460
 20
134.778832
 30
0.0
 10
45.687957
 20
134.778832
 30
0.0
  0
LWPOLYLINE
  5
10c
100
AcDbEntity
  8
Layer_1
 62
7
100
AcDbPolyline
 90
4
 70
1
 10
102.947085
 20
161.449399
 30
0.0
 10
106.047587
 20
161.449399
 30
0.0
 10
106.047587
 20
161.003902
 30
0.0
 10
102.947085
 20
161.003902
 30
0.0
  0
LWPOLYLINE
  5
10d
100
AcDbEntity
  8
Layer_1
 62
7
100
AcDbPolyline
 90
4
 70
1
 10
102.947085
 20
145.781217
 30
0.0
 10
106.047587
 20
145.781217
 30
0.0
 10
106.047587
 20
145.335720
 30
0.0
 10
102.947085
 20
145.335720
 30
0.0
  0
LWPOLYLINE
  5
10e
100
AcDbEntity
  8
Layer_1
 62
7
100
AcDbPolyline
 90
4
 70
1
 10
102.947085
 20
129.986458
 30
0.0
 10
106.047587
 20
129.986458
 30
0.0
 10
106.047587
 20
129.540961
 30
0.0
 10
102.947085
 20
129.540961
 30
0.0
  0
LWPOLYLINE
  5
10f
100
AcDbEntity
  8
Layer_1
 62
7
100
AcDbPolyline
 90
4
 70
1
 10
102.947085
 20
114.254987
 30
0.0
 10
106.047587
 20
114.254987
 30
0.0
 10
106.047587
 20
113.809490
 30
0.0
 10
102.947085
 20
113.809490
 30
0.0
  0
SPLINE
  5
110
100
AcDbEntity
  8
Layer_1
 62
7
100
AcDbSpline
 70
8
 71
3
 72
8
 73
4
 74
0
 40
0
 40
0
 40
0
 40
0
 40
1
 40
1
 40
1
 40
1
 10
40.246095
 20
162.227750
 30
0.0
 10
40.139972
 20
162.126504
 30
0.0
 10
40.000379
 20
162.025258
 30
0.0
 10
39.827317
 20
161.924012
 30
0.0
  0
SPLINE
  5
111
100
AcDbEntity
  8
Layer_1
 62
7
100
AcDbSpline
 70
8
 71
3
 72
8
 73
4
 74
0
 40
0
 40
0
 40
0
 40
0
 40
1
 40
1
 40
1
 40
1
 10
39.827317
 20
161.924012
 30
0.0
 10
39.655888
 20
161.822766
 30
0.0
 10
39.501601
 20
161.746832
 30
0.0
 10
39.364457
 20
161.696208
 30
0.0
  0
LWPOLYLINE
  5
112
100
AcDbEntity
  8
Layer_1
 62
7
100
AcDbPolyline
 90
3
 70
0
 10
40.686913
 20
159.418174
 30
0.0
 10
40.246095
 20
159.418174
 30
0.0
 10
40.246095
 20
162.227750
 30
0.0
  0
SPLINE
  5
113
100
AcDbEntity
  8
Layer_1
 62
7
100
AcDbSpline
 70
8
 71
3
 72
8
 73
4
 74
0
 40
0
 40
0
 40
0
 40
0
 40
1
 40
1
 40
1
 40
1
 10
39.364457
 20
162.122421
 30
0.0
 10
39.610989
 20
162.238364
 30
0.0
 10
39.826500
 20
162.378803
 30
0.0
 10
40.010991
 20
162.543736
 30
0.0
  0
SPLINE
  5
114
100
AcDbEntity
  8
Layer_1
 62
7
100
AcDbSpline
 70
8
 71
3
 72
8
 73
4
 74
0
 40
0
 40
0
 40
0
 40
0
 40
1
 40
1
 40
1
 40
1
 10
40.010991
 20
162.543736
 30
0.0
 10
40.195482
 20
162.708668
 30
0.0
 10
40.326095
 20
162.868702
 30
0.0
 10
40.402830
 20
163.023837
 30
0.0
  0
LWPOLYLINE
  5
115
100
AcDbEntity
  8
Layer_1
 62
7
100
AcDbPolyline
 90
2
 70
0
 10
39.364457
 20
161.696208
 30
0.0
 10
39.364457
 20
162.122421
 30
0.0
  0
LWPOLYLINE
  5
116
100
AcDbEntity
  8
Layer_1
 62
7
100
AcDbPolyline
 90
3
 70
0
 10
40.402830
 20
163.023837
 30
0.0
 10
40.686913
 20
163.023837
 30
0.0
 10
40.686913
 20
159.418174
 30
0.0
  0
SPLINE
  5
117
100
AcDbEntity
  8
Layer_1
 62
7
100
AcDbSpline
 70
8
 71
3
 72
8
 73
4
 74
0
 40
0
 40
0
 40
0
 40
0
 40
1
 40
1
 40
1
 40
1
 10
41.762021
 20
159.418174
 30
0.0
 10
41.758758
 20
159.524319
 30
0.0
 10
41.775901
 20
159.626382
 30
0.0
 10
41.813450
 20
159.724361
 30
0.0
  0
SPLINE
  5
118
100
AcDbEntity
  8
Layer_1
 62
7
100
AcDbSpline
 70
8
 71
3
 72
8
 73
4
 74
0
 40
0
 40
0
 40
0
 40
0
 40
1
 40
1
 40
1
 40
1
 10
41.813450
 20
159.724361
 30
0.0
 10
41.873859
 20
159.886028
 30
0.0
 10
41.970186
 20
160.045246
 30
0.0
 10
42.102431
 20
160.202014
 30
0.0
  0
SPLINE
  5
119
100
AcDbEntity
  8
Layer_1
 62
7
100
AcDbSpline
 70
8
 71
3
 72
8
 73
4
 74
0
 40
0
 40
0
 40
0
 40
0
 40
1
 40
1
 40
1
 40
1
 10
42.102431
 20
160.202014
 30
0.0
 10
42.236309
 20
160.358782
 30
0.0
 10
42.428963
 20
160.540045
 30
0.0
 10
42.680393
 20
160.745803
 30
0.0
  0
SPLINE
  5
11a
100
AcDbEntity
  8
Layer_1
 62
7
100
AcDbSpline
 70
8
 71
3
 72
8
 73
4
 74
0
 40
0
 40
0
 40
0
 40
0
 40
1
 40
1
 40
1
 40
1
 10
42.680393
 20
160.745803
 30
0.0
 10
43.070600
 20
161.065871
 30
0.0
 10
43.334274
 20
161.318986
 30
0.0
 10
43.471418
 20
161.505147
 30
0.0
  0
SPLINE
  5
11b
100
AcDbEntity
  8
Layer_1
 62
7
100
AcDbSpline
 70
8
 71
3
 72
8
 73
4
 74
0
 40
0
 40
0
 40
0
 40
0
 40
1
 40
1
 40
1
 40
1
 10
43.471418
 20
161.505147
 30
0.0
 10
43.608562
 20
161.692942
 30
0.0
 10
43.677134
 20
161.870123
 30
0.0
 10
43.677134
 20
162.036689
 30
0.0
  0
SPLINE
  5
11c
100
AcDbEntity
  8
Layer_1
 62
7
100
AcDbSpline
 70
8
 71
3
 72
8
 73
4
 74
0
 40
0
 40
0
 40
0
 40
0
 40
1
 40
1
 40
1
 40
1
 10
43.677134
 20
162.036689
 30
0.0
 10
43.677134
 20
162.211420
 30
0.0
 10
43.614276
 20
162.358390
 30
0.0
 10
43.488561
 20
162.477599
 30
0.0
  0
SPLINE
  5
11d
100
AcDbEntity
  8
Layer_1
 62
7
100
AcDbSpline
 70
8
 71
3
 72
8
 73
4
 74
0
 40
0
 40
0
 40
0
 40
0
 40
1
 40
1
 40
1
 40
1
 10
43.488561
 20
162.477599
 30
0.0
 10
43.364479
 20
162.598441
 30
0.0
 10
43.202029
 20
162.658862
 30
0.0
 10
43.001211
 20
162.658862
 30
0.0
  0
SPLINE
  5
11e
100
AcDbEntity
  8
Layer_1
 62
7
100
AcDbSpline
 70
8
 71
3
 72
8
 73
4
 74
0
 40
0
 40
0
 40
0
 40
0
 40
1
 40
1
 40
1
 40
1
 10
43.001211
 20
162.658862
 30
0.0
 10
42.788966
 20
162.658862
 30
0.0
 10
42.619169
 20
162.595175
 30
0.0
 10
42.491821
 20
162.467801
 30
0.0
  0
SPLINE
  5
11f
100
AcDbEntity
  8
Layer_1
 62
7
100
AcDbSpline
 70
8
 71
3
 72
8
 73
4
 74
0
 40
0
 40
0
 40
0
 40
0
 40
1
 40
1
 40
1
 40
1
 10
42.491821
 20
162.467801
 30
0.0
 10
42.364474
 20
162.340427
 30
0.0
 10
42.299984
 20
162.164063
 30
0.0
 10
42.298351
 20
161.938709
 30
0.0
  0
LWPOLYLINE
  5
120
100
AcDbEntity
  8
Layer_1
 62
7
100
AcDbPolyline
 90
3
 70
0
 10
44.135095
 20
159.841938
 30
0.0
 10
44.135095
 20
159.418174
 30
0.0
 10
41.762021
 20
159.418174
 30
0.0
  0
SPLINE
  5
121
100
AcDbEntity
  8
Layer_1
 62
7
100
AcDbSpline
 70
8
 71
3
 72
8
 73
4
 74
0
 40
0
 40
0
 40
0
 40
0
 40
1
 40
1
 40
1
 40
1
 10
41.845287
 20
161.985250
 30
0.0
 10
41.876308
 20
162.323281
 30
0.0
 10
41.993043
 20
162.580478
 30
0.0
 10
42.195493
 20
162.756842
 30
0.0
  0
SPLINE
  5
122
100
AcDbEntity
  8
Layer_1
 62
7
100
AcDbSpline
 70
8
 71
3
 72
8
 73
4
 74
0
 40
0
 40
0
 40
0
 40
0
 40
1
 40
1
 40
1
 40
1
 10
42.195493
 20
162.756842
 30
0.0
 10
42.397943
 20
162.934839
 30
0.0
 10
42.669781
 20
163.023837
 30
0.0
 10
43.011007
 20
163.023837
 30
0.0
  0
SPLINE
  5
123
100
AcDbEntity
  8
Layer_1
 62
7
100
AcDbSpline
 70
8
 71
3
 72
8
 73
4
 74
0
 40
0
 40
0
 40
0
 40
0
 40
1
 40
1
 40
1
 40
1
 10
43.011007
 20
163.023837
 30
0.0
 10
43.355499
 20
163.023837
 30
0.0
 10
43.628154
 20
162.928307
 30
0.0
 10
43.828971
 20
162.737246
 30
0.0
  0
SPLINE
  5
124
100
AcDbEntity
  8
Layer_1
 62
7
100
AcDbSpline
 70
8
 71
3
 72
8
 73
4
 74
0
 40
0
 40
0
 40
0
 40
0
 40
1
 40
1
 40
1
 40
1
 10
43.828971
 20
162.737246
 30
0.0
 10
44.029789
 20
162.546185
 30
0.0
 10
44.130197
 20
162.309400
 30
0.0
 10
44.130197
 20
162.026891
 30
0.0
  0
SPLINE
  5
125
100
AcDbEntity
  8
Layer_1
 62
7
100
AcDbSpline
 70
8
 71
3
 72
8
 73
4
 74
0
 40
0
 40
0
 40
0
 40
0
 40
1
 40
1
 40
1
 40
1
 10
44.130197
 20
162.026891
 30
0.0
 10
44.130197
 20
161.883187
 30
0.0
 10
44.100809
 20
161.741933
 30
0.0
 10
44.042033
 20
161.603128
 30
0.0
  0
SPLINE
  5
126
100
AcDbEntity
  8
Layer_1
 62
7
100
AcDbSpline
 70
8
 71
3
 72
8
 73
4
 74
0
 40
0
 40
0
 40
0
 40
0
 40
1
 40
1
 40
1
 40
1
 10
44.042033
 20
161.603128
 30
0.0
 10
43.983257
 20
161.464323
 30
0.0
 10
43.885298
 20
161.318169
 30
0.0
 10
43.748155
 20
161.164667
 30
0.0
  0
SPLINE
  5
127
100
AcDbEntity
  8
Layer_1
 62
7
100
AcDbSpline
 70
8
 71
3
 72
8
 73
4
 74
0
 40
0
 40
0
 40
0
 40
0
 40
1
 40
1
 40
1
 40
1
 10
43.748155
 20
161.164667
 30
0.0
 10
43.612644
 20
161.011165
 30
0.0
 10
43.386520
 20
160.800508
 30
0.0
 10
43.069784
 20
160.532696
 30
0.0
  0
SPLINE
  5
128
100
AcDbEntity
  8
Layer_1
 62
7
100
AcDbSpline
 70
8
 71
3
 72
8
 73
4
 74
0
 40
0
 40
0
 40
0
 40
0
 40
1
 40
1
 40
1
 40
1
 10
43.069784
 20
160.532696
 30
0.0
 10
42.805292
 20
160.310608
 30
0.0
 10
42.635495
 20
160.159556
 30
0.0
 10
42.560393
 20
160.079539
 30
0.0
  0
SPLINE
  5
129
100
AcDbEntity
  8
Layer_1
 62
7
100
AcDbSpline
 70
8
 71
3
 72
8
 73
4
 74
0
 40
0
 40
0
 40
0
 40
0
 40
1
 40
1
 40
1
 40
1
 10
42.560393
 20
160.079539
 30
0.0
 10
42.485290
 20
160.001155
 30
0.0
 10
42.423249
 20
159.921955
 30
0.0
 10
42.374269
 20
159.841938
 30
0.0
  0
LWPOLYLINE
  5
12a
100
AcDbEntity
  8
Layer_1
 62
7
100
AcDbPolyline
 90
2
 70
0
 10
42.298351
 20
161.938709
 30
0.0
 10
41.845287
 20
161.985250
 30
0.0
  0
LWPOLYLINE
  5
12b
100
AcDbEntity
  8
Layer_1
 62
7
100
AcDbPolyline
 90
2
 70
0
 10
42.374269
 20
159.841938
 30
0.0
 10
44.135095
 20
159.841938
 30
0.0
  0
SPLINE
  5
12c
100
AcDbEntity
  8
Layer_1
 62
7
100
AcDbSpline
 70
8
 71
3
 72
8
 73
4
 74
0
 40
0
 40
0
 40
0
 40
0
 40
1
 40
1
 40
1
 40
1
 10
40.618371
 20
157.047034
 30
0.0
 10
40.512248
 20
156.945788
 30
0.0
 10
40.372655
 20
156.844542
 30
0.0
 10
40.199593
 20
156.743296
 30
0.0
  0
SPLINE
  5
12d
100
AcDbEntity
  8
Layer_1
 62
7
100
AcDbSpline
 70
8
 71
3
 72
8
 73
4
 74
0
 40
0
 40
0
 40
0
 40
0
 40
1
 40
1
 40
1
 40
1
 10
40.199593
 20
156.743296
 30
0.0
 10
40.028164
 20
156.642050
 30
0.0
 10
39.873878
 20
156.566116
 30
0.0
 10
39.736734
 20
156.515493
 30
0.0
  0
LWPOLYLINE
  5
12e
100
AcDbEntity
  8
Layer_1
 62
7
100
AcDbPolyline
 90
3
 70
0
 10
41.059190
 20
154.237458
 30
0.0
 10
40.618371
 20
154.237458
 30
0.0
 10
40.618371
 20
157.047034
 30
0.0
  0
SPLINE
  5
12f
100
AcDbEntity
  8
Layer_1
 62
7
100
AcDbSpline
 70
8
 71
3
 72
8
 73
4
 74
0
 40
0
 40
0
 40
0
 40
0
 40
1
 40
1
 40
1
 40
1
 10
39.736734
 20
156.941706
 30
0.0
 10
39.983266
 20
157.057649
 30
0.0
 10
40.198777
 20
157.198087
 30
0.0
 10
40.383268
 20
157.363019
 30
0.0
  0
SPLINE
  5
130
100
AcDbEntity
  8
Layer_1
 62
7
100
AcDbSpline
 70
8
 71
3
 72
8
 73
4
 74
0
 40
0
 40
0
 40
0
 40
0
 40
1
 40
1
 40
1
 40
1
 10
40.383268
 20
157.363019
 30
0.0
 10
40.567759
 20
157.527952
 30
0.0
 10
40.698372
 20
157.687987
 30
0.0
 10
40.775106
 20
157.843122
 30
0.0
  0
LWPOLYLINE
  5
131
100
AcDbEntity
  8
Layer_1
 62
7
100
AcDbPolyline
 90
2
 70
0
 10
39.736734
 20
156.515493
 30
0.0
 10
39.736734
 20
156.941706
 30
0.0
  0
LWPOLYLINE
  5
132
100
AcDbEntity
  8
Layer_1
 62
7
100
AcDbPolyline
 90
3
 70
0
 10
40.775106
 20
157.843122
 30
0.0
 10
41.059190
 20
157.843122
 30
0.0
 10
41.059190
 20
154.237458
 30
0.0
  0
SPLINE
  5
133
100
AcDbEntity
  8
Layer_1
 62
7
100
AcDbSpline
 70
8
 71
3
 72
8
 73
4
 74
0
 40
0
 40
0
 40
0
 40
0
 40
1
 40
1
 40
1
 40
1
 10
43.035458
 20
157.047034
 30
0.0
 10
42.929335
 20
156.945788
 30
0.0
 10
42.789743
 20
156.844542
 30
0.0
 10
42.616681
 20
156.743296
 30
0.0
  0
SPLINE
  5
134
100
AcDbEntity
  8
Layer_1
 62
7
100
AcDbSpline
 70
8
 71
3
 72
8
 73
4
 74
0
 40
0
 40
0
 40
0
 40
0
 40
1
 40
1
 40
1
 40
1
 10
42.616681
 20
156.743296
 30
0.0
 10
42.445251
 20
156.642050
 30
0.0
 10
42.290964
 20
156.566116
 30
0.0
 10
42.153821
 20
156.515493
 30
0.0
  0
LWPOLYLINE
  5
135
100
AcDbEntity
  8
Layer_1
 62
7
100
AcDbPolyline
 90
3
 70
0
 10
43.476277
 20
154.237458
 30
0.0
 10
43.035458
 20
154.237458
 30
0.0
 10
43.035458
 20
157.047034
 30
0.0
  0
SPLINE
  5
136
100
AcDbEntity
  8
Layer_1
 62
7
100
AcDbSpline
 70
8
 71
3
 72
8
 73
4
 74
0
 40
0
 40
0
 40
0
 40
0
 40
1
 40
1
 40
1
 40
1
 10
42.153821
 20
156.941706
 30
0.0
 10
42.400353
 20
157.057649
 30
0.0
 10
42.615864
 20
157.198087
 30
0.0
 10
42.800355
 20
157.363019
 30
0.0
  0
SPLINE
  5
137
100
AcDbEntity
  8
Layer_1
 62
7
100
AcDbSpline
 70
8
 71
3
 72
8
 73
4
 74
0
 40
0
 40
0
 40
0
 40
0
 40
1
 40
1
 40
1
 40
1
 10
42.800355
 20
157.363019
 30
0.0
 10
42.984846
 20
157.527952
 30
0.0
 10
43.115459
 20
157.687987
 30
0.0
 10
43.192194
 20
157.843122
 30
0.0
  0
LWPOLYLINE
  5
138
100
AcDbEntity
  8
Layer_1
 62
7
100
AcDbPolyline
 90
2
 70
0
 10
42.153821
 20
156.515493
 30
0.0
 10
42.153821
 20
156.941706
 30
0.0
  0
LWPOLYLINE
  5
139
100
AcDbEntity
  8
Layer_1
 62
7
100
AcDbPolyline
 90
3
 70
0
 10
43.192194
 20
157.843122
 30
0.0
 10
43.476277
 20
157.843122
 30
0.0
 10
43.476277
 20
154.237458
 30
0.0
  0
SPLINE
  5
13a
100
AcDbEntity
  8
Layer_1
 62
7
100
AcDbSpline
 70
8
 71
3
 72
8
 73
4
 74
0
 40
0
 40
0
 40
0
 40
0
 40
1
 40
1
 40
1
 40
1
 10
40.246095
 20
151.866313
 30
0.0
 10
40.139972
 20
151.765067
 30
0.0
 10
40.000379
 20
151.663821
 30
0.0
 10
39.827317
 20
151.562575
 30
0.0
  0
SPLINE
  5
13b
100
AcDbEntity
  8
Layer_1
 62
7
100
AcDbSpline
 70
8
 71
3
 72
8
 73
4
 74
0
 40
0
 40
0
 40
0
 40
0
 40
1
 40
1
 40
1
 40
1
 10
39.827317
 20
151.562575
 30
0.0
 10
39.655888
 20
151.461329
 30
0.0
 10
39.501601
 20
151.385395
 30
0.0
 10
39.364457
 20
151.334772
 30
0.0
  0
LWPOLYLINE
  5
13c
100
AcDbEntity
  8
Layer_1
 62
7
100
AcDbPolyline
 90
3
 70
0
 10
40.686913
 20
149.056737
 30
0.0
 10
40.246095
 20
149.056737
 30
0.0
 10
40.246095
 20
151.866313
 30
0.0
  0
SPLINE
  5
13d
100
AcDbEntity
  8
Layer_1
 62
7
100
AcDbSpline
 70
8
 71
3
 72
8
 73
4
 74
0
 40
0
 40
0
 40
0
 40
0
 40
1
 40
1
 40
1
 40
1
 10
39.364457
 20
151.760985
 30
0.0
 10
39.610989
 20
151.876928
 30
0.0
 10
39.826500
 20
152.017365
 30
0.0
 10
40.010991
 20
152.182299
 30
0.0
  0
SPLINE
  5
13e
100
AcDbEntity
  8
Layer_1
 62
7
100
AcDbSpline
 70
8
 71
3
 72
8
 73
4
 74
0
 40
0
 40
0
 40
0
 40
0
 40
1
 40
1
 40
1
 40
1
 10
40.010991
 20
152.182299
 30
0.0
 10
40.195482
 20
152.347231
 30
0.0
 10
40.326095
 20
152.507265
 30
0.0
 10
40.402830
 20
152.662400
 30
0.0
  0
LWPOLYLINE
  5
13f
100
AcDbEntity
  8
Layer_1
 62
7
100
AcDbPolyline
 90
2
 70
0
 10
39.364457
 20
151.334772
 30
0.0
 10
39.364457
 20
151.760985
 30
0.0
  0
SPLINE
  5
140
100
AcDbEntity
  8
Layer_1
 62
7
100
AcDbSpline
 70
8
 71
3
 72
8
 73
4
 74
0
 40
0
 40
0
 40
0
 40
0
 40
1
 40
1
 40
1
 40
1
 10
41.818348
 20
150.827725
 30
0.0
 10
41.818348
 20
151.252305
 30
0.0
 10
41.861614
 20
151.593602
 30
0.0
 10
41.948145
 20
151.851616
 30
0.0
  0
SPLINE
  5
141
100
AcDbEntity
  8
Layer_1
 62
7
100
AcDbSpline
 70
8
 71
3
 72
8
 73
4
 74
0
 40
0
 40
0
 40
0
 40
0
 40
1
 40
1
 40
1
 40
1
 10
41.948145
 20
151.851616
 30
0.0
 10
42.036308
 20
152.111263
 30
0.0
 10
42.166105
 20
152.311305
 30
0.0
 10
42.337535
 20
152.451743
 30
0.0
  0
SPLINE
  5
142
100
AcDbEntity
  8
Layer_1
 62
7
100
AcDbSpline
 70
8
 71
3
 72
8
 73
4
 74
0
 40
0
 40
0
 40
0
 40
0
 40
1
 40
1
 40
1
 40
1
 10
42.337535
 20
152.451743
 30
0.0
 10
42.510597
 20
152.592181
 30
0.0
 10
42.727741
 20
152.662400
 30
0.0
 10
42.988967
 20
152.662400
 30
0.0
  0
SPLINE
  5
143
100
AcDbEntity
  8
Layer_1
 62
7
100
AcDbSpline
 70
8
 71
3
 72
8
 73
4
 74
0
 40
0
 40
0
 40
0
 40
0
 40
1
 40
1
 40
1
 40
1
 10
42.988967
 20
152.662400
 30
0.0
 10
43.181621
 20
152.662400
 30
0.0
 10
43.350601
 20
152.623208
 30
0.0
 10
43.495908
 20
152.544824
 30
0.0
  0
SPLINE
  5
144
100
AcDbEntity
  8
Layer_1
 62
7
100
AcDbSpline
 70
8
 71
3
 72
8
 73
4
 74
0
 40
0
 40
0
 40
0
 40
0
 40
1
 40
1
 40
1
 40
1
 10
43.495908
 20
152.544824
 30
0.0
 10
43.641215
 20
152.468073
 30
0.0
 10
43.761216
 20
152.356213
 30
0.0
 10
43.855910
 20
152.209243
 30
0.0
  0
SPLINE
  5
145
100
AcDbEntity
  8
Layer_1
 62
7
100
AcDbSpline
 70
8
 71
3
 72
8
 73
4
 74
0
 40
0
 40
0
 40
0
 40
0
 40
1
 40
1
 40
1
 40
1
 10
43.855910
 20
152.209243
 30
0.0
 10
43.950605
 20
152.063906
 30
0.0
 10
44.024891
 20
151.885909
 30
0.0
 10
44.078769
 20
151.675252
 30
0.0
  0
SPLINE
  5
146
100
AcDbEntity
  8
Layer_1
 62
7
100
AcDbSpline
 70
8
 71
3
 72
8
 73
4
 74
0
 40
0
 40
0
 40
0
 40
0
 40
1
 40
1
 40
1
 40
1
 10
44.078769
 20
151.675252
 30
0.0
 10
44.132646
 20
151.466228
 30
0.0
 10
44.159585
 20
151.183719
 30
0.0
 10
44.159585
 20
150.827725
 30
0.0
  0
SPLINE
  5
147
100
AcDbEntity
  8
Layer_1
 62
7
100
AcDbSpline
 70
8
 71
3
 72
8
 73
4
 74
0
 40
0
 40
0
 40
0
 40
0
 40
1
 40
1
 40
1
 40
1
 10
44.159585
 20
150.827725
 30
0.0
 10
44.159585
 20
150.406411
 30
0.0
 10
44.116320
 20
150.065931
 30
0.0
 10
44.029789
 20
149.806284
 30
0.0
  0
SPLINE
  5
148
100
AcDbEntity
  8
Layer_1
 62
7
100
AcDbSpline
 70
8
 71
3
 72
8
 73
4
 74
0
 40
0
 40
0
 40
0
 40
0
 40
1
 40
1
 40
1
 40
1
 10
44.029789
 20
149.806284
 30
0.0
 10
43.943258
 20
149.548270
 30
0.0
 10
43.813461
 20
149.348228
 30
0.0
 10
43.640399
 20
149.206157
 30
0.0
  0
SPLINE
  5
149
100
AcDbEntity
  8
Layer_1
 62
7
100
AcDbSpline
 70
8
 71
3
 72
8
 73
4
 74
0
 40
0
 40
0
 40
0
 40
0
 40
1
 40
1
 40
1
 40
1
 10
43.640399
 20
149.206157
 30
0.0
 10
43.468969
 20
149.065719
 30
0.0
 10
43.251825
 20
148.995500
 30
0.0
 10
42.988967
 20
148.995500
 30
0.0
  0
SPLINE
  5
14a
100
AcDbEntity
  8
Layer_1
 62
7
100
AcDbSpline
 70
8
 71
3
 72
8
 73
4
 74
0
 40
0
 40
0
 40
0
 40
0
 40
1
 40
1
 40
1
 40
1
 10
42.988967
 20
148.995500
 30
0.0
 10
42.642842
 20
148.995500
 30
0.0
 10
42.371004
 20
149.119608
 30
0.0
 10
42.173452
 20
149.367823
 30
0.0
  0
SPLINE
  5
14b
100
AcDbEntity
  8
Layer_1
 62
7
100
AcDbSpline
 70
8
 71
3
 72
8
 73
4
 74
0
 40
0
 40
0
 40
0
 40
0
 40
1
 40
1
 40
1
 40
1
 10
42.173452
 20
149.367823
 30
0.0
 10
41.936716
 20
149.666663
 30
0.0
 10
41.818348
 20
150.153297
 30
0.0
 10
41.818348
 20
150.827725
 30
0.0
  0
LWPOLYLINE
  5
14c
100
AcDbEntity
  8
Layer_1
 62
7
100
AcDbPolyline
 90
3
 70
0
 10
40.402830
 20
152.662400
 30
0.0
 10
40.686913
 20
152.662400
 30
0.0
 10
40.686913
 20
149.056737
 30
0.0
  0
SPLINE
  5
14d
100
AcDbEntity
  8
Layer_1
 62
7
100
AcDbSpline
 70
8
 71
3
 72
8
 73
4
 74
0
 40
0
 40
0
 40
0
 40
0
 40
1
 40
1
 40
1
 40
1
 10
42.271412
 20
150.827725
 30
0.0
 10
42.271412
 20
150.238212
 30
0.0
 10
42.339984
 20
149.845476
 30
0.0
 10
42.477127
 20
149.649516
 30
0.0
  0
SPLINE
  5
14e
100
AcDbEntity
  8
Layer_1
 62
7
100
AcDbSpline
 70
8
 71
3
 72
8
 73
4
 74
0
 40
0
 40
0
 40
0
 40
0
 40
1
 40
1
 40
1
 40
1
 10
42.477127
 20
149.649516
 30
0.0
 10
42.615904
 20
149.455189
 30
0.0
 10
42.786517
 20
149.358025
 30
0.0
 10
42.988967
 20
149.358025
 30
0.0
  0
SPLINE
  5
14f
100
AcDbEntity
  8
Layer_1
 62
7
100
AcDbSpline
 70
8
 71
3
 72
8
 73
4
 74
0
 40
0
 40
0
 40
0
 40
0
 40
1
 40
1
 40
1
 40
1
 10
42.988967
 20
149.358025
 30
0.0
 10
43.191417
 20
149.358025
 30
0.0
 10
43.361214
 20
149.456005
 30
0.0
 10
43.498357
 20
149.651965
 30
0.0
  0
SPLINE
  5
150
100
AcDbEntity
  8
Layer_1
 62
7
100
AcDbSpline
 70
8
 71
3
 72
8
 73
4
 74
0
 40
0
 40
0
 40
0
 40
0
 40
1
 40
1
 40
1
 40
1
 10
43.498357
 20
149.651965
 30
0.0
 10
43.637133
 20
149.847925
 30
0.0
 10
43.706522
 20
150.239845
 30
0.0
 10
43.706522
 20
150.827725
 30
0.0
  0
SPLINE
  5
151
100
AcDbEntity
  8
Layer_1
 62
7
100
AcDbSpline
 70
8
 71
3
 72
8
 73
4
 74
0
 40
0
 40
0
 40
0
 40
0
 40
1
 40
1
 40
1
 40
1
 10
43.706522
 20
150.827725
 30
0.0
 10
43.706522
 20
151.418871
 30
0.0
 10
43.637133
 20
151.811607
 30
0.0
 10
43.498357
 20
152.005934
 30
0.0
  0
SPLINE
  5
152
100
AcDbEntity
  8
Layer_1
 62
7
100
AcDbSpline
 70
8
 71
3
 72
8
 73
4
 74
0
 40
0
 40
0
 40
0
 40
0
 40
1
 40
1
 40
1
 40
1
 10
43.498357
 20
152.005934
 30
0.0
 10
43.361214
 20
152.200262
 30
0.0
 10
43.189784
 20
152.297425
 30
0.0
 10
42.984069
 20
152.297425
 30
0.0
  0
SPLINE
  5
153
100
AcDbEntity
  8
Layer_1
 62
7
100
AcDbSpline
 70
8
 71
3
 72
8
 73
4
 74
0
 40
0
 40
0
 40
0
 40
0
 40
1
 40
1
 40
1
 40
1
 10
42.984069
 20
152.297425
 30
0.0
 10
42.781618
 20
152.297425
 30
0.0
 10
42.619985
 20
152.211693
 30
0.0
 10
42.499168
 20
152.040228
 30
0.0
  0
SPLINE
  5
154
100
AcDbEntity
  8
Layer_1
 62
7
100
AcDbSpline
 70
8
 71
3
 72
8
 73
4
 74
0
 40
0
 40
0
 40
0
 40
0
 40
1
 40
1
 40
1
 40
1
 10
42.499168
 20
152.040228
 30
0.0
 10
42.347331
 20
151.821405
 30
0.0
 10
42.271412
 20
151.417238
 30
0.0
 10
42.271412
 20
150.827725
 30
0.0
  0
LWPOLYLINE
  5
155
100
AcDbEntity
  8
Layer_1
 62
7
100
AcDbPolyline
 90
1
 70
1
 10
41.818348
 20
150.827725
 30
0.0
  0
LWPOLYLINE
  5
156
100
AcDbEntity
  8
Layer_1
 62
7
100
AcDbPolyline
 90
1
 70
1
 10
42.271412
 20
150.827725
 30
0.0
  0
SPLINE
  5
157
100
AcDbEntity
  8
Layer_1
 62
7
100
AcDbSpline
 70
8
 71
3
 72
8
 73
4
 74
0
 40
0
 40
0
 40
0
 40
0
 40
1
 40
1
 40
1
 40
1
 10
42.305658
 20
144.745672
 30
0.0
 10
42.341577
 20
144.546446
 30
0.0
 10
42.410149
 20
144.401925
 30
0.0
 10
42.511374
 20
144.312110
 30
0.0
  0
SPLINE
  5
158
100
AcDbEntity
  8
Layer_1
 62
7
100
AcDbSpline
 70
8
 71
3
 72
8
 73
4
 74
0
 40
0
 40
0
 40
0
 40
0
 40
1
 40
1
 40
1
 40
1
 10
42.511374
 20
144.312110
 30
0.0
 10
42.612599
 20
144.222296
 30
0.0
 10
42.742395
 20
144.177388
 30
0.0
 10
42.900763
 20
144.177388
 30
0.0
  0
SPLINE
  5
159
100
AcDbEntity
  8
Layer_1
 62
7
100
AcDbSpline
 70
8
 71
3
 72
8
 73
4
 74
0
 40
0
 40
0
 40
0
 40
0
 40
1
 40
1
 40
1
 40
1
 10
42.900763
 20
144.177388
 30
0.0
 10
43.036274
 20
144.177388
 30
0.0
 10
43.154642
 20
144.208415
 30
0.0
 10
43.255867
 20
144.270469
 30
0.0
  0
SPLINE
  5
15a
100
AcDbEntity
  8
Layer_1
 62
7
100
AcDbSpline
 70
8
 71
3
 72
8
 73
4
 74
0
 40
0
 40
0
 40
0
 40
0
 40
1
 40
1
 40
1
 40
1
 10
43.255867
 20
144.270469
 30
0.0
 10
43.358725
 20
144.332523
 30
0.0
 10
43.442807
 20
144.414989
 30
0.0
 10
43.508114
 20
144.517869
 30
0.0
  0
SPLINE
  5
15b
100
AcDbEntity
  8
Layer_1
 62
7
100
AcDbSpline
 70
8
 71
3
 72
8
 73
4
 74
0
 40
0
 40
0
 40
0
 40
0
 40
1
 40
1
 40
1
 40
1
 10
43.508114
 20
144.517869
 30
0.0
 10
43.573420
 20
144.622380
 30
0.0
 10
43.628115
 20
144.762818
 30
0.0
 10
43.672196
 20
144.939182
 30
0.0
  0
SPLINE
  5
15c
100
AcDbEntity
  8
Layer_1
 62
7
100
AcDbSpline
 70
8
 71
3
 72
8
 73
4
 74
0
 40
0
 40
0
 40
0
 40
0
 40
1
 40
1
 40
1
 40
1
 10
43.672196
 20
144.939182
 30
0.0
 10
43.716278
 20
145.115546
 30
0.0
 10
43.738319
 20
145.295176
 30
0.0
 10
43.738319
 20
145.478072
 30
0.0
  0
SPLINE
  5
15d
100
AcDbEntity
  8
Layer_1
 62
7
100
AcDbSpline
 70
8
 71
3
 72
8
 73
4
 74
0
 40
0
 40
0
 40
0
 40
0
 40
1
 40
1
 40
1
 40
1
 10
43.738319
 20
145.478072
 30
0.0
 10
43.738319
 20
145.497668
 30
0.0
 10
43.737504
 20
145.527062
 30
0.0
 10
43.735872
 20
145.566254
 30
0.0
  0
SPLINE
  5
15e
100
AcDbEntity
  8
Layer_1
 62
7
100
AcDbSpline
 70
8
 71
3
 72
8
 73
4
 74
0
 40
0
 40
0
 40
0
 40
0
 40
1
 40
1
 40
1
 40
1
 10
43.735872
 20
145.566254
 30
0.0
 10
43.647708
 20
145.425816
 30
0.0
 10
43.526891
 20
145.311506
 30
0.0
 10
43.373421
 20
145.223324
 30
0.0
  0
SPLINE
  5
15f
100
AcDbEntity
  8
Layer_1
 62
7
100
AcDbSpline
 70
8
 71
3
 72
8
 73
4
 74
0
 40
0
 40
0
 40
0
 40
0
 40
1
 40
1
 40
1
 40
1
 10
43.373421
 20
145.223324
 30
0.0
 10
43.221583
 20
145.136775
 30
0.0
 10
43.056684
 20
145.093501
 30
0.0
 10
42.878725
 20
145.093501
 30
0.0
  0
SPLINE
  5
160
100
AcDbEntity
  8
Layer_1
 62
7
100
AcDbSpline
 70
8
 71
3
 72
8
 73
4
 74
0
 40
0
 40
0
 40
0
 40
0
 40
1
 40
1
 40
1
 40
1
 10
42.878725
 20
145.093501
 30
0.0
 10
42.581580
 20
145.093501
 30
0.0
 10
42.330150
 20
145.201279
 30
0.0
 10
42.124434
 20
145.416835
 30
0.0
  0
SPLINE
  5
161
100
AcDbEntity
  8
Layer_1
 62
7
100
AcDbSpline
 70
8
 71
3
 72
8
 73
4
 74
0
 40
0
 40
0
 40
0
 40
0
 40
1
 40
1
 40
1
 40
1
 10
42.124434
 20
145.416835
 30
0.0
 10
41.918719
 20
145.632391
 30
0.0
 10
41.815862
 20
145.916533
 30
0.0
 10
41.815862
 20
146.269261
 30
0.0
  0
SPLINE
  5
162
100
AcDbEntity
  8
Layer_1
 62
7
100
AcDbSpline
 70
8
 71
3
 72
8
 73
4
 74
0
 40
0
 40
0
 40
0
 40
0
 40
1
 40
1
 40
1
 40
1
 10
41.815862
 20
146.269261
 30
0.0
 10
41.815862
 20
146.633420
 30
0.0
 10
41.922801
 20
146.926543
 30
0.0
 10
42.136680
 20
147.148631
 30
0.0
  0
SPLINE
  5
163
100
AcDbEntity
  8
Layer_1
 62
7
100
AcDbSpline
 70
8
 71
3
 72
8
 73
4
 74
0
 40
0
 40
0
 40
0
 40
0
 40
1
 40
1
 40
1
 40
1
 10
42.136680
 20
147.148631
 30
0.0
 10
42.352191
 20
147.370719
 30
0.0
 10
42.621580
 20
147.481763
 30
0.0
 10
42.944847
 20
147.481763
 30
0.0
  0
SPLINE
  5
164
100
AcDbEntity
  8
Layer_1
 62
7
100
AcDbSpline
 70
8
 71
3
 72
8
 73
4
 74
0
 40
0
 40
0
 40
0
 40
0
 40
1
 40
1
 40
1
 40
1
 10
42.944847
 20
147.481763
 30
0.0
 10
43.178318
 20
147.481763
 30
0.0
 10
43.391380
 20
147.418892
 30
0.0
 10
43.584034
 20
147.293151
 30
0.0
  0
SPLINE
  5
165
100
AcDbEntity
  8
Layer_1
 62
7
100
AcDbSpline
 70
8
 71
3
 72
8
 73
4
 74
0
 40
0
 40
0
 40
0
 40
0
 40
1
 40
1
 40
1
 40
1
 10
43.584034
 20
147.293151
 30
0.0
 10
43.778321
 20
147.167410
 30
0.0
 10
43.925260
 20
146.987780
 30
0.0
 10
44.024853
 20
146.754262
 30
0.0
  0
SPLINE
  5
166
100
AcDbEntity
  8
Layer_1
 62
7
100
AcDbSpline
 70
8
 71
3
 72
8
 73
4
 74
0
 40
0
 40
0
 40
0
 40
0
 40
1
 40
1
 40
1
 40
1
 10
44.024853
 20
146.754262
 30
0.0
 10
44.126078
 20
146.522376
 30
0.0
 10
44.176690
 20
146.185978
 30
0.0
 10
44.176690
 20
145.745068
 30
0.0
  0
SPLINE
  5
167
100
AcDbEntity
  8
Layer_1
 62
7
100
AcDbSpline
 70
8
 71
3
 72
8
 73
4
 74
0
 40
0
 40
0
 40
0
 40
0
 40
1
 40
1
 40
1
 40
1
 10
44.176690
 20
145.745068
 30
0.0
 10
44.176690
 20
145.286195
 30
0.0
 10
44.126894
 20
144.920403
 30
0.0
 10
44.027302
 20
144.647692
 30
0.0
  0
SPLINE
  5
168
100
AcDbEntity
  8
Layer_1
 62
7
100
AcDbSpline
 70
8
 71
3
 72
8
 73
4
 74
0
 40
0
 40
0
 40
0
 40
0
 40
1
 40
1
 40
1
 40
1
 10
44.027302
 20
144.647692
 30
0.0
 10
43.927710
 20
144.376614
 30
0.0
 10
43.779137
 20
144.170039
 30
0.0
 10
43.581585
 20
144.027968
 30
0.0
  0
SPLINE
  5
169
100
AcDbEntity
  8
Layer_1
 62
7
100
AcDbSpline
 70
8
 71
3
 72
8
 73
4
 74
0
 40
0
 40
0
 40
0
 40
0
 40
1
 40
1
 40
1
 40
1
 10
43.581585
 20
144.027968
 30
0.0
 10
43.385666
 20
143.885897
 30
0.0
 10
43.155460
 20
143.814862
 30
0.0
 10
42.890969
 20
143.814862
 30
0.0
  0
SPLINE
  5
16a
100
AcDbEntity
  8
Layer_1
 62
7
100
AcDbSpline
 70
8
 71
3
 72
8
 73
4
 74
0
 40
0
 40
0
 40
0
 40
0
 40
1
 40
1
 40
1
 40
1
 10
42.890969
 20
143.814862
 30
0.0
 10
42.610151
 20
143.814862
 30
0.0
 10
42.380763
 20
143.892429
 30
0.0
 10
42.202803
 20
144.047564
 30
0.0
  0
SPLINE
  5
16b
100
AcDbEntity
  8
Layer_1
 62
7
100
AcDbSpline
 70
8
 71
3
 72
8
 73
4
 74
0
 40
0
 40
0
 40
0
 40
0
 40
1
 40
1
 40
1
 40
1
 10
42.202803
 20
144.047564
 30
0.0
 10
42.024842
 20
144.204332
 30
0.0
 10
41.917903
 20
144.423971
 30
0.0
 10
41.881984
 20
144.706480
 30
0.0
  0
LWPOLYLINE
  5
16c
100
AcDbEntity
  8
Layer_1
 62
7
100
AcDbPolyline
 90
2
 70
0
 10
41.881983
 20
144.706480
 30
0.0
 10
42.305658
 20
144.745672
 30
0.0
  0
SPLINE
  5
16d
100
AcDbEntity
  8
Layer_1
 62
7
100
AcDbSpline
 70
8
 71
3
 72
8
 73
4
 74
0
 40
0
 40
0
 40
0
 40
0
 40
1
 40
1
 40
1
 40
1
 10
43.686891
 20
146.291306
 30
0.0
 10
43.686891
 20
146.544421
 30
0.0
 10
43.619135
 20
146.745280
 30
0.0
 10
43.483624
 20
146.893883
 30
0.0
  0
SPLINE
  5
16e
100
AcDbEntity
  8
Layer_1
 62
7
100
AcDbSpline
 70
8
 71
3
 72
8
 73
4
 74
0
 40
0
 40
0
 40
0
 40
0
 40
1
 40
1
 40
1
 40
1
 10
43.483624
 20
146.893883
 30
0.0
 10
43.349746
 20
147.042486
 30
0.0
 10
43.188112
 20
147.116788
 30
0.0
 10
42.998724
 20
147.116788
 30
0.0
  0
SPLINE
  5
16f
100
AcDbEntity
  8
Layer_1
 62
7
100
AcDbSpline
 70
8
 71
3
 72
8
 73
4
 74
0
 40
0
 40
0
 40
0
 40
0
 40
1
 40
1
 40
1
 40
1
 10
42.998724
 20
147.116788
 30
0.0
 10
42.802804
 20
147.116788
 30
0.0
 10
42.632191
 20
147.036771
 30
0.0
 10
42.486884
 20
146.876737
 30
0.0
  0
SPLINE
  5
170
100
AcDbEntity
  8
Layer_1
 62
7
100
AcDbSpline
 70
8
 71
3
 72
8
 73
4
 74
0
 40
0
 40
0
 40
0
 40
0
 40
1
 40
1
 40
1
 40
1
 10
42.486884
 20
146.876737
 30
0.0
 10
42.341577
 20
146.716702
 30
0.0
 10
42.268924
 20
146.509311
 30
0.0
 10
42.268924
 20
146.254563
 30
0.0
  0
SPLINE
  5
171
100
AcDbEntity
  8
Layer_1
 62
7
100
AcDbSpline
 70
8
 71
3
 72
8
 73
4
 74
0
 40
0
 40
0
 40
0
 40
0
 40
1
 40
1
 40
1
 40
1
 10
42.268924
 20
146.254563
 30
0.0
 10
42.268924
 20
146.025944
 30
0.0
 10
42.337495
 20
145.839782
 30
0.0
 10
42.474639
 20
145.696077
 30
0.0
  0
SPLINE
  5
172
100
AcDbEntity
  8
Layer_1
 62
7
100
AcDbSpline
 70
8
 71
3
 72
8
 73
4
 74
0
 40
0
 40
0
 40
0
 40
0
 40
1
 40
1
 40
1
 40
1
 10
42.474639
 20
145.696077
 30
0.0
 10
42.613415
 20
145.554006
 30
0.0
 10
42.784028
 20
145.482971
 30
0.0
 10
42.986478
 20
145.482971
 30
0.0
  0
SPLINE
  5
173
100
AcDbEntity
  8
Layer_1
 62
7
100
AcDbSpline
 70
8
 71
3
 72
8
 73
4
 74
0
 40
0
 40
0
 40
0
 40
0
 40
1
 40
1
 40
1
 40
1
 10
42.986478
 20
145.482971
 30
0.0
 10
43.190561
 20
145.482971
 30
0.0
 10
43.357909
 20
145.554006
 30
0.0
 10
43.488522
 20
145.696077
 30
0.0
  0
SPLINE
  5
174
100
AcDbEntity
  8
Layer_1
 62
7
100
AcDbSpline
 70
8
 71
3
 72
8
 73
4
 74
0
 40
0
 40
0
 40
0
 40
0
 40
1
 40
1
 40
1
 40
1
 10
43.488522
 20
145.696077
 30
0.0
 10
43.620768
 20
145.839782
 30
0.0
 10
43.686891
 20
146.038191
 30
0.0
 10
43.686891
 20
146.291306
 30
0.0
  0
LWPOLYLINE
  5
175
100
AcDbEntity
  8
Layer_1
 62
7
100
AcDbPolyline
 90
1
 70
1
 10
41.881984
 20
144.706480
 30
0.0
  0
SPLINE
  5
176
100
AcDbEntity
  8
Layer_1
 62
7
100
AcDbSpline
 70
8
 71
3
 72
8
 73
4
 74
0
 40
0
 40
0
 40
0
 40
0
 40
1
 40
1
 40
1
 40
1
 10
42.494231
 20
140.642735
 30
0.0
 10
42.311373
 20
140.709689
 30
0.0
 10
42.175862
 20
140.805219
 30
0.0
 10
42.087698
 20
140.929327
 30
0.0
  0
SPLINE
  5
177
100
AcDbEntity
  8
Layer_1
 62
7
100
AcDbSpline
 70
8
 71
3
 72
8
 73
4
 74
0
 40
0
 40
0
 40
0
 40
0
 40
1
 40
1
 40
1
 40
1
 10
42.087698
 20
140.929327
 30
0.0
 10
41.999534
 20
141.053435
 30
0.0
 10
41.955453
 20
141.202038
 30
0.0
 10
41.955453
 20
141.375136
 30
0.0
  0
SPLINE
  5
178
100
AcDbEntity
  8
Layer_1
 62
7
100
AcDbSpline
 70
8
 71
3
 72
8
 73
4
 74
0
 40
0
 40
0
 40
0
 40
0
 40
1
 40
1
 40
1
 40
1
 10
41.955453
 20
141.375136
 30
0.0
 10
41.955453
 20
141.636416
 30
0.0
 10
42.049331
 20
141.856054
 30
0.0
 10
42.237087
 20
142.034051
 30
0.0
  0
SPLINE
  5
179
100
AcDbEntity
  8
Layer_1
 62
7
100
AcDbSpline
 70
8
 71
3
 72
8
 73
4
 74
0
 40
0
 40
0
 40
0
 40
0
 40
1
 40
1
 40
1
 40
1
 10
42.237087
 20
142.034051
 30
0.0
 10
42.424843
 20
142.212049
 30
0.0
 10
42.674640
 20
142.301047
 30
0.0
 10
42.986478
 20
142.301047
 30
0.0
  0
SPLINE
  5
17a
100
AcDbEntity
  8
Layer_1
 62
7
100
AcDbSpline
 70
8
 71
3
 72
8
 73
4
 74
0
 40
0
 40
0
 40
0
 40
0
 40
1
 40
1
 40
1
 40
1
 10
42.986478
 20
142.301047
 30
0.0
 10
43.299950
 20
142.301047
 30
0.0
 10
43.552196
 20
142.209599
 30
0.0
 10
43.743217
 20
142.026703
 30
0.0
  0
SPLINE
  5
17b
100
AcDbEntity
  8
Layer_1
 62
7
100
AcDbSpline
 70
8
 71
3
 72
8
 73
4
 74
0
 40
0
 40
0
 40
0
 40
0
 40
1
 40
1
 40
1
 40
1
 10
43.743217
 20
142.026703
 30
0.0
 10
43.934239
 20
141.845440
 30
0.0
 10
44.029749
 20
141.624169
 30
0.0
 10
44.029749
 20
141.362888
 30
0.0
  0
SPLINE
  5
17c
100
AcDbEntity
  8
Layer_1
 62
7
100
AcDbSpline
 70
8
 71
3
 72
8
 73
4
 74
0
 40
0
 40
0
 40
0
 40
0
 40
1
 40
1
 40
1
 40
1
 10
44.029749
 20
141.362888
 30
0.0
 10
44.029749
 20
141.196323
 30
0.0
 10
43.985668
 20
141.050986
 30
0.0
 10
43.897504
 20
140.926877
 30
0.0
  0
SPLINE
  5
17d
100
AcDbEntity
  8
Layer_1
 62
7
100
AcDbSpline
 70
8
 71
3
 72
8
 73
4
 74
0
 40
0
 40
0
 40
0
 40
0
 40
1
 40
1
 40
1
 40
1
 10
43.897504
 20
140.926877
 30
0.0
 10
43.810973
 20
140.804403
 30
0.0
 10
43.678727
 20
140.709689
 30
0.0
 10
43.500767
 20
140.642735
 30
0.0
  0
SPLINE
  5
17e
100
AcDbEntity
  8
Layer_1
 62
7
100
AcDbSpline
 70
8
 71
3
 72
8
 73
4
 74
0
 40
0
 40
0
 40
0
 40
0
 40
1
 40
1
 40
1
 40
1
 10
43.500767
 20
140.642735
 30
0.0
 10
43.721176
 20
140.570883
 30
0.0
 10
43.888524
 20
140.454941
 30
0.0
 10
44.002811
 20
140.294907
 30
0.0
  0
SPLINE
  5
17f
100
AcDbEntity
  8
Layer_1
 62
7
100
AcDbSpline
 70
8
 71
3
 72
8
 73
4
 74
0
 40
0
 40
0
 40
0
 40
0
 40
1
 40
1
 40
1
 40
1
 10
44.002811
 20
140.294907
 30
0.0
 10
44.118729
 20
140.134873
 30
0.0
 10
44.176689
 20
139.943812
 30
0.0
 10
44.176689
 20
139.721724
 30
0.0
  0
SPLINE
  5
180
100
AcDbEntity
  8
Layer_1
 62
7
100
AcDbSpline
 70
8
 71
3
 72
8
 73
4
 74
0
 40
0
 40
0
 40
0
 40
0
 40
1
 40
1
 40
1
 40
1
 10
44.176689
 20
139.721724
 30
0.0
 10
44.176689
 20
139.414720
 30
0.0
 10
44.068117
 20
139.156706
 30
0.0
 10
43.850973
 20
138.947682
 30
0.0
  0
SPLINE
  5
181
100
AcDbEntity
  8
Layer_1
 62
7
100
AcDbSpline
 70
8
 71
3
 72
8
 73
4
 74
0
 40
0
 40
0
 40
0
 40
0
 40
1
 40
1
 40
1
 40
1
 10
43.850973
 20
138.947682
 30
0.0
 10
43.633829
 20
138.738658
 30
0.0
 10
43.348113
 20
138.634146
 30
0.0
 10
42.993825
 20
138.634146
 30
0.0
  0
SPLINE
  5
182
100
AcDbEntity
  8
Layer_1
 62
7
100
AcDbSpline
 70
8
 71
3
 72
8
 73
4
 74
0
 40
0
 40
0
 40
0
 40
0
 40
1
 40
1
 40
1
 40
1
 10
42.993825
 20
138.634146
 30
0.0
 10
42.639538
 20
138.634146
 30
0.0
 10
42.353822
 20
138.738658
 30
0.0
 10
42.136678
 20
138.947682
 30
0.0
  0
SPLINE
  5
183
100
AcDbEntity
  8
Layer_1
 62
7
100
AcDbSpline
 70
8
 71
3
 72
8
 73
4
 74
0
 40
0
 40
0
 40
0
 40
0
 40
1
 40
1
 40
1
 40
1
 10
42.136678
 20
138.947682
 30
0.0
 10
41.919534
 20
139.158339
 30
0.0
 10
41.810962
 20
139.420435
 30
0.0
 10
41.810962
 20
139.733971
 30
0.0
  0
SPLINE
  5
184
100
AcDbEntity
  8
Layer_1
 62
7
100
AcDbSpline
 70
8
 71
3
 72
8
 73
4
 74
0
 40
0
 40
0
 40
0
 40
0
 40
1
 40
1
 40
1
 40
1
 10
41.810962
 20
139.733971
 30
0.0
 10
41.810962
 20
139.967490
 30
0.0
 10
41.869738
 20
140.162634
 30
0.0
 10
41.987290
 20
140.319401
 30
0.0
  0
SPLINE
  5
185
100
AcDbEntity
  8
Layer_1
 62
7
100
AcDbSpline
 70
8
 71
3
 72
8
 73
4
 74
0
 40
0
 40
0
 40
0
 40
0
 40
1
 40
1
 40
1
 40
1
 10
41.987290
 20
140.319401
 30
0.0
 10
42.106474
 20
140.477803
 30
0.0
 10
42.275454
 20
140.585581
 30
0.0
 10
42.494231
 20
140.642735
 30
0.0
  0
LWPOLYLINE
  5
186
100
AcDbEntity
  8
Layer_1
 62
7
100
AcDbPolyline
 90
1
 70
1
 10
43.686891
 20
146.291306
 30
0.0
  0
SPLINE
  5
187
100
AcDbEntity
  8
Layer_1
 62
7
100
AcDbSpline
 70
8
 71
3
 72
8
 73
4
 74
0
 40
0
 40
0
 40
0
 40
0
 40
1
 40
1
 40
1
 40
1
 10
42.406067
 20
141.389833
 30
0.0
 10
42.406067
 20
141.220001
 30
0.0
 10
42.460761
 20
141.081196
 30
0.0
 10
42.570150
 20
140.973418
 30
0.0
  0
SPLINE
  5
188
100
AcDbEntity
  8
Layer_1
 62
7
100
AcDbSpline
 70
8
 71
3
 72
8
 73
4
 74
0
 40
0
 40
0
 40
0
 40
0
 40
1
 40
1
 40
1
 40
1
 10
42.570150
 20
140.973418
 30
0.0
 10
42.679538
 20
140.865640
 30
0.0
 10
42.821580
 20
140.811751
 30
0.0
 10
42.996274
 20
140.811751
 30
0.0
  0
SPLINE
  5
189
100
AcDbEntity
  8
Layer_1
 62
7
100
AcDbSpline
 70
8
 71
3
 72
8
 73
4
 74
0
 40
0
 40
0
 40
0
 40
0
 40
1
 40
1
 40
1
 40
1
 10
42.996274
 20
140.811751
 30
0.0
 10
43.166071
 20
140.811751
 30
0.0
 10
43.304848
 20
140.864824
 30
0.0
 10
43.412603
 20
140.970969
 30
0.0
  0
SPLINE
  5
18a
100
AcDbEntity
  8
Layer_1
 62
7
100
AcDbSpline
 70
8
 71
3
 72
8
 73
4
 74
0
 40
0
 40
0
 40
0
 40
0
 40
1
 40
1
 40
1
 40
1
 10
43.412603
 20
140.970969
 30
0.0
 10
43.521992
 20
141.078747
 30
0.0
 10
43.576686
 20
141.210203
 30
0.0
 10
43.576686
 20
141.365338
 30
0.0
  0
SPLINE
  5
18b
100
AcDbEntity
  8
Layer_1
 62
7
100
AcDbSpline
 70
8
 71
3
 72
8
 73
4
 74
0
 40
0
 40
0
 40
0
 40
0
 40
1
 40
1
 40
1
 40
1
 10
43.576686
 20
141.365338
 30
0.0
 10
43.576686
 20
141.527005
 30
0.0
 10
43.520359
 20
141.662544
 30
0.0
 10
43.407705
 20
141.771955
 30
0.0
  0
SPLINE
  5
18c
100
AcDbEntity
  8
Layer_1
 62
7
100
AcDbSpline
 70
8
 71
3
 72
8
 73
4
 74
0
 40
0
 40
0
 40
0
 40
0
 40
1
 40
1
 40
1
 40
1
 10
43.407705
 20
141.771955
 30
0.0
 10
43.296684
 20
141.882999
 30
0.0
 10
43.157908
 20
141.938521
 30
0.0
 10
42.991377
 20
141.938521
 30
0.0
  0
SPLINE
  5
18d
100
AcDbEntity
  8
Layer_1
 62
7
100
AcDbSpline
 70
8
 71
3
 72
8
 73
4
 74
0
 40
0
 40
0
 40
0
 40
0
 40
1
 40
1
 40
1
 40
1
 10
42.991377
 20
141.938521
 30
0.0
 10
42.823212
 20
141.938521
 30
0.0
 10
42.683619
 20
141.884632
 30
0.0
 10
42.572599
 20
141.776854
 30
0.0
  0
SPLINE
  5
18e
100
AcDbEntity
  8
Layer_1
 62
7
100
AcDbSpline
 70
8
 71
3
 72
8
 73
4
 74
0
 40
0
 40
0
 40
0
 40
0
 40
1
 40
1
 40
1
 40
1
 10
42.572599
 20
141.776854
 30
0.0
 10
42.461577
 20
141.669076
 30
0.0
 10
42.406067
 20
141.540069
 30
0.0
 10
42.406067
 20
141.389833
 30
0.0
  0
LWPOLYLINE
  5
18f
100
AcDbEntity
  8
Layer_1
 62
7
100
AcDbPolyline
 90
1
 70
1
 10
42.494231
 20
140.642735
 30
0.0
  0
SPLINE
  5
190
100
AcDbEntity
  8
Layer_1
 62
7
100
AcDbSpline
 70
8
 71
3
 72
8
 73
4
 74
0
 40
0
 40
0
 40
0
 40
0
 40
1
 40
1
 40
1
 40
1
 10
42.264025
 20
139.731522
 30
0.0
 10
42.264025
 20
139.605781
 30
0.0
 10
42.293413
 20
139.484122
 30
0.0
 10
42.352190
 20
139.366547
 30
0.0
  0
SPLINE
  5
191
100
AcDbEntity
  8
Layer_1
 62
7
100
AcDbSpline
 70
8
 71
3
 72
8
 73
4
 74
0
 40
0
 40
0
 40
0
 40
0
 40
1
 40
1
 40
1
 40
1
 10
42.352190
 20
139.366547
 30
0.0
 10
42.412598
 20
139.248970
 30
0.0
 10
42.501578
 20
139.157522
 30
0.0
 10
42.619129
 20
139.092203
 30
0.0
  0
SPLINE
  5
192
100
AcDbEntity
  8
Layer_1
 62
7
100
AcDbSpline
 70
8
 71
3
 72
8
 73
4
 74
0
 40
0
 40
0
 40
0
 40
0
 40
1
 40
1
 40
1
 40
1
 10
42.619129
 20
139.092203
 30
0.0
 10
42.736681
 20
139.028515
 30
0.0
 10
42.863213
 20
138.996672
 30
0.0
 10
42.998724
 20
138.996672
 30
0.0
  0
SPLINE
  5
193
100
AcDbEntity
  8
Layer_1
 62
7
100
AcDbSpline
 70
8
 71
3
 72
8
 73
4
 74
0
 40
0
 40
0
 40
0
 40
0
 40
1
 40
1
 40
1
 40
1
 10
42.998724
 20
138.996672
 30
0.0
 10
43.209337
 20
138.996672
 30
0.0
 10
43.383215
 20
139.064441
 30
0.0
 10
43.520359
 20
139.199980
 30
0.0
  0
SPLINE
  5
194
100
AcDbEntity
  8
Layer_1
 62
7
100
AcDbSpline
 70
8
 71
3
 72
8
 73
4
 74
0
 40
0
 40
0
 40
0
 40
0
 40
1
 40
1
 40
1
 40
1
 10
43.520359
 20
139.199980
 30
0.0
 10
43.657502
 20
139.335519
 30
0.0
 10
43.726074
 20
139.507801
 30
0.0
 10
43.726074
 20
139.716825
 30
0.0
  0
SPLINE
  5
195
100
AcDbEntity
  8
Layer_1
 62
7
100
AcDbSpline
 70
8
 71
3
 72
8
 73
4
 74
0
 40
0
 40
0
 40
0
 40
0
 40
1
 40
1
 40
1
 40
1
 10
43.726074
 20
139.716825
 30
0.0
 10
43.726074
 20
139.929115
 30
0.0
 10
43.655054
 20
140.104663
 30
0.0
 10
43.513012
 20
140.243467
 30
0.0
  0
SPLINE
  5
196
100
AcDbEntity
  8
Layer_1
 62
7
100
AcDbSpline
 70
8
 71
3
 72
8
 73
4
 74
0
 40
0
 40
0
 40
0
 40
0
 40
1
 40
1
 40
1
 40
1
 10
43.513012
 20
140.243467
 30
0.0
 10
43.372603
 20
140.382272
 30
0.0
 10
43.196276
 20
140.451674
 30
0.0
 10
42.984029
 20
140.451674
 30
0.0
  0
SPLINE
  5
197
100
AcDbEntity
  8
Layer_1
 62
7
100
AcDbSpline
 70
8
 71
3
 72
8
 73
4
 74
0
 40
0
 40
0
 40
0
 40
0
 40
1
 40
1
 40
1
 40
1
 10
42.984029
 20
140.451674
 30
0.0
 10
42.776681
 20
140.451674
 30
0.0
 10
42.604435
 20
140.383089
 30
0.0
 10
42.467292
 20
140.245917
 30
0.0
  0
SPLINE
  5
198
100
AcDbEntity
  8
Layer_1
 62
7
100
AcDbSpline
 70
8
 71
3
 72
8
 73
4
 74
0
 40
0
 40
0
 40
0
 40
0
 40
1
 40
1
 40
1
 40
1
 10
42.467292
 20
140.245917
 30
0.0
 10
42.331781
 20
140.108745
 30
0.0
 10
42.264025
 20
139.937280
 30
0.0
 10
42.264025
 20
139.731522
 30
0.0
  0
LWPOLYLINE
  5
199
100
AcDbEntity
  8
Layer_1
 62
7
100
AcDbPolyline
 90
1
 70
1
 10
42.406067
 20
141.389833
 30
0.0
  0
LWPOLYLINE
  5
19a
100
AcDbEntity
  8
Layer_1
 62
7
100
AcDbPolyline
 90
1
 70
1
 10
42.264025
 20
139.731522
 30
0.0
  0
SPLINE
  5
19b
100
AcDbEntity
  8
Layer_1
 62
7
100
AcDbSpline
 70
8
 71
3
 72
8
 73
4
 74
0
 40
0
 40
0
 40
0
 40
0
 40
1
 40
1
 40
1
 40
1
 10
44.169342
 20
136.716163
 30
0.0
 10
43.940769
 20
136.472846
 30
0.0
 10
43.713829
 20
136.149512
 30
0.0
 10
43.488522
 20
135.746162
 30
0.0
  0
SPLINE
  5
19c
100
AcDbEntity
  8
Layer_1
 62
7
100
AcDbSpline
 70
8
 71
3
 72
8
 73
4
 74
0
 40
0
 40
0
 40
0
 40
0
 40
1
 40
1
 40
1
 40
1
 10
43.488522
 20
135.746162
 30
0.0
 10
43.264847
 20
135.342811
 30
0.0
 10
43.091785
 20
134.928029
 30
0.0
 10
42.969336
 20
134.501816
 30
0.0
  0
SPLINE
  5
19d
100
AcDbEntity
  8
Layer_1
 62
7
100
AcDbSpline
 70
8
 71
3
 72
8
 73
4
 74
0
 40
0
 40
0
 40
0
 40
0
 40
1
 40
1
 40
1
 40
1
 10
42.969336
 20
134.501816
 30
0.0
 10
42.881172
 20
134.201344
 30
0.0
 10
42.824845
 20
133.872295
 30
0.0
 10
42.800355
 20
133.514668
 30
0.0
  0
LWPOLYLINE
  5
19e
100
AcDbEntity
  8
Layer_1
 62
7
100
AcDbPolyline
 90
4
 70
0
 10
41.845248
 20
136.635330
 30
0.0
 10
41.845248
 20
137.059093
 30
0.0
 10
44.169342
 20
137.059093
 30
0.0
 10
44.169342
 20
136.716163
 30
0.0
  0
SPLINE
  5
19f
100
AcDbEntity
  8
Layer_1
 62
7
100
AcDbSpline
 70
8
 71
3
 72
8
 73
4
 74
0
 40
0
 40
0
 40
0
 40
0
 40
1
 40
1
 40
1
 40
1
 10
42.347291
 20
133.514668
 30
0.0
 10
42.352186
 20
133.797177
 30
0.0
 10
42.407697
 20
134.138473
 30
0.0
 10
42.513823
 20
134.538558
 30
0.0
  0
SPLINE
  5
1a0
100
AcDbEntity
  8
Layer_1
 62
7
100
AcDbSpline
 70
8
 71
3
 72
8
 73
4
 74
0
 40
0
 40
0
 40
0
 40
0
 40
1
 40
1
 40
1
 40
1
 10
42.513823
 20
134.538558
 30
0.0
 10
42.619946
 20
134.938643
 30
0.0
 10
42.771783
 20
135.324031
 30
0.0
 10
42.969336
 20
135.694722
 30
0.0
  0
SPLINE
  5
1a1
100
AcDbEntity
  8
Layer_1
 62
7
100
AcDbSpline
 70
8
 71
3
 72
8
 73
4
 74
0
 40
0
 40
0
 40
0
 40
0
 40
1
 40
1
 40
1
 40
1
 10
42.969336
 20
135.694722
 30
0.0
 10
43.168520
 20
136.067046
 30
0.0
 10
43.379950
 20
136.380582
 30
0.0
 10
43.603625
 20
136.635330
 30
0.0
  0
LWPOLYLINE
  5
1a2
100
AcDbEntity
  8
Layer_1
 62
7
100
AcDbPolyline
 90
2
 70
0
 10
42.800355
 20
133.514668
 30
0.0
 10
42.347291
 20
133.514668
 30
0.0
  0
LWPOLYLINE
  5
1a3
100
AcDbEntity
  8
Layer_1
 62
7
100
AcDbPolyline
 90
2
 70
0
 10
43.603625
 20
136.635330
 30
0.0
 10
41.845248
 20
136.635330
 30
0.0
  0
SPLINE
  5
1a4
100
AcDbEntity
  8
Layer_1
 62
7
100
AcDbSpline
 70
8
 71
3
 72
8
 73
4
 74
0
 40
0
 40
0
 40
0
 40
0
 40
1
 40
1
 40
1
 40
1
 10
43.664849
 20
131.011252
 30
0.0
 10
43.625666
 20
131.184351
 30
0.0
 10
43.570155
 20
131.310093
 30
0.0
 10
43.498318
 20
131.388477
 30
0.0
  0
SPLINE
  5
1a5
100
AcDbEntity
  8
Layer_1
 62
7
100
AcDbSpline
 70
8
 71
3
 72
8
 73
4
 74
0
 40
0
 40
0
 40
0
 40
0
 40
1
 40
1
 40
1
 40
1
 10
43.498318
 20
131.388477
 30
0.0
 10
43.379133
 20
131.514218
 30
0.0
 10
43.232194
 20
131.577089
 30
0.0
 10
43.057499
 20
131.577089
 30
0.0
  0
SPLINE
  5
1a6
100
AcDbEntity
  8
Layer_1
 62
7
100
AcDbSpline
 70
8
 71
3
 72
8
 73
4
 74
0
 40
0
 40
0
 40
0
 40
0
 40
1
 40
1
 40
1
 40
1
 10
43.057499
 20
131.577089
 30
0.0
 10
42.917090
 20
131.577089
 30
0.0
 10
42.793825
 20
131.537897
 30
0.0
 10
42.687702
 20
131.459513
 30
0.0
  0
SPLINE
  5
1a7
100
AcDbEntity
  8
Layer_1
 62
7
100
AcDbSpline
 70
8
 71
3
 72
8
 73
4
 74
0
 40
0
 40
0
 40
0
 40
0
 40
1
 40
1
 40
1
 40
1
 10
42.687702
 20
131.459513
 30
0.0
 10
42.548925
 20
131.358267
 30
0.0
 10
42.439537
 20
131.210481
 30
0.0
 10
42.359536
 20
131.016156
 30
0.0
  0
SPLINE
  5
1a8
100
AcDbEntity
  8
Layer_1
 62
7
100
AcDbSpline
 70
8
 71
3
 72
8
 73
4
 74
0
 40
0
 40
0
 40
0
 40
0
 40
1
 40
1
 40
1
 40
1
 10
42.359536
 20
131.016156
 30
0.0
 10
42.279536
 20
130.821828
 30
0.0
 10
42.237903
 20
130.545034
 30
0.0
 10
42.234637
 20
130.185772
 30
0.0
  0
SPLINE
  5
1a9
100
AcDbEntity
  8
Layer_1
 62
7
100
AcDbSpline
 70
8
 71
3
 72
8
 73
4
 74
0
 40
0
 40
0
 40
0
 40
0
 40
1
 40
1
 40
1
 40
1
 10
42.234637
 20
130.185772
 30
0.0
 10
42.340761
 20
130.347442
 30
0.0
 10
42.470558
 20
130.467468
 30
0.0
 10
42.624028
 20
130.545850
 30
0.0
  0
SPLINE
  5
1aa
100
AcDbEntity
  8
Layer_1
 62
7
100
AcDbSpline
 70
8
 71
3
 72
8
 73
4
 74
0
 40
0
 40
0
 40
0
 40
0
 40
1
 40
1
 40
1
 40
1
 10
42.624028
 20
130.545850
 30
0.0
 10
42.777498
 20
130.624231
 30
0.0
 10
42.938315
 20
130.663422
 30
0.0
 10
43.106479
 20
130.663422
 30
0.0
  0
SPLINE
  5
1ab
100
AcDbEntity
  8
Layer_1
 62
7
100
AcDbSpline
 70
8
 71
3
 72
8
 73
4
 74
0
 40
0
 40
0
 40
0
 40
0
 40
1
 40
1
 40
1
 40
1
 10
43.106479
 20
130.663422
 30
0.0
 10
43.400358
 20
130.663422
 30
0.0
 10
43.650156
 20
130.554829
 30
0.0
 10
43.855871
 20
130.337642
 30
0.0
  0
SPLINE
  5
1ac
100
AcDbEntity
  8
Layer_1
 62
7
100
AcDbSpline
 70
8
 71
3
 72
8
 73
4
 74
0
 40
0
 40
0
 40
0
 40
0
 40
1
 40
1
 40
1
 40
1
 10
43.855871
 20
130.337642
 30
0.0
 10
44.063219
 20
130.122087
 30
0.0
 10
44.166893
 20
129.842844
 30
0.0
 10
44.166893
 20
129.499914
 30
0.0
  0
SPLINE
  5
1ad
100
AcDbEntity
  8
Layer_1
 62
7
100
AcDbSpline
 70
8
 71
3
 72
8
 73
4
 74
0
 40
0
 40
0
 40
0
 40
0
 40
1
 40
1
 40
1
 40
1
 10
44.166893
 20
129.499914
 30
0.0
 10
44.166893
 20
129.274561
 30
0.0
 10
44.117913
 20
129.064721
 30
0.0
 10
44.019954
 20
128.870394
 30
0.0
  0
SPLINE
  5
1ae
100
AcDbEntity
  8
Layer_1
 62
7
100
AcDbSpline
 70
8
 71
3
 72
8
 73
4
 74
0
 40
0
 40
0
 40
0
 40
0
 40
1
 40
1
 40
1
 40
1
 10
44.019954
 20
128.870394
 30
0.0
 10
43.923626
 20
128.677699
 30
0.0
 10
43.790564
 20
128.529912
 30
0.0
 10
43.620767
 20
128.427033
 30
0.0
  0
SPLINE
  5
1af
100
AcDbEntity
  8
Layer_1
 62
7
100
AcDbSpline
 70
8
 71
3
 72
8
 73
4
 74
0
 40
0
 40
0
 40
0
 40
0
 40
1
 40
1
 40
1
 40
1
 10
43.620767
 20
128.427033
 30
0.0
 10
43.450970
 20
128.324155
 30
0.0
 10
43.258316
 20
128.272715
 30
0.0
 10
43.042805
 20
128.272715
 30
0.0
  0
SPLINE
  5
1b0
100
AcDbEntity
  8
Layer_1
 62
7
100
AcDbSpline
 70
8
 71
3
 72
8
 73
4
 74
0
 40
0
 40
0
 40
0
 40
0
 40
1
 40
1
 40
1
 40
1
 10
43.042805
 20
128.272715
 30
0.0
 10
42.675456
 20
128.272715
 30
0.0
 10
42.375863
 20
128.407438
 30
0.0
 10
42.144025
 20
128.676883
 30
0.0
  0
SPLINE
  5
1b1
100
AcDbEntity
  8
Layer_1
 62
7
100
AcDbSpline
 70
8
 71
3
 72
8
 73
4
 74
0
 40
0
 40
0
 40
0
 40
0
 40
1
 40
1
 40
1
 40
1
 10
42.144025
 20
128.676883
 30
0.0
 10
41.912187
 20
128.947960
 30
0.0
 10
41.796268
 20
129.393769
 30
0.0
 10
41.796268
 20
130.014310
 30
0.0
  0
SPLINE
  5
1b2
100
AcDbEntity
  8
Layer_1
 62
7
100
AcDbSpline
 70
8
 71
3
 72
8
 73
4
 74
0
 40
0
 40
0
 40
0
 40
0
 40
1
 40
1
 40
1
 40
1
 10
41.796268
 20
130.014310
 30
0.0
 10
41.796268
 20
130.708336
 30
0.0
 10
41.924432
 20
131.212933
 30
0.0
 10
42.180760
 20
131.528099
 30
0.0
  0
SPLINE
  5
1b3
100
AcDbEntity
  8
Layer_1
 62
7
100
AcDbSpline
 70
8
 71
3
 72
8
 73
4
 74
0
 40
0
 40
0
 40
0
 40
0
 40
1
 40
1
 40
1
 40
1
 10
42.180760
 20
131.528099
 30
0.0
 10
42.404435
 20
131.802443
 30
0.0
 10
42.705661
 20
131.939615
 30
0.0
 10
43.084438
 20
131.939615
 30
0.0
  0
SPLINE
  5
1b4
100
AcDbEntity
  8
Layer_1
 62
7
100
AcDbSpline
 70
8
 71
3
 72
8
 73
4
 74
0
 40
0
 40
0
 40
0
 40
0
 40
1
 40
1
 40
1
 40
1
 10
43.084438
 20
131.939615
 30
0.0
 10
43.366888
 20
131.939615
 30
0.0
 10
43.597910
 20
131.860414
 30
0.0
 10
43.777503
 20
131.702013
 30
0.0
  0
SPLINE
  5
1b5
100
AcDbEntity
  8
Layer_1
 62
7
100
AcDbSpline
 70
8
 71
3
 72
8
 73
4
 74
0
 40
0
 40
0
 40
0
 40
0
 40
1
 40
1
 40
1
 40
1
 10
43.777503
 20
131.702013
 30
0.0
 10
43.958729
 20
131.543612
 30
0.0
 10
44.067301
 20
131.324791
 30
0.0
 10
44.103219
 20
131.045549
 30
0.0
  0
LWPOLYLINE
  5
1b6
100
AcDbEntity
  8
Layer_1
 62
7
100
AcDbPolyline
 90
2
 70
0
 10
44.103219
 20
131.045549
 30
0.0
 10
43.664849
 20
131.011252
 30
0.0
  0
SPLINE
  5
1b7
100
AcDbEntity
  8
Layer_1
 62
7
100
AcDbSpline
 70
8
 71
3
 72
8
 73
4
 74
0
 40
0
 40
0
 40
0
 40
0
 40
1
 40
1
 40
1
 40
1
 10
42.303210
 20
129.497466
 30
0.0
 10
42.303210
 20
129.345593
 30
0.0
 10
42.335047
 20
129.200255
 30
0.0
 10
42.398720
 20
129.061449
 30
0.0
  0
SPLINE
  5
1b8
100
AcDbEntity
  8
Layer_1
 62
7
100
AcDbSpline
 70
8
 71
3
 72
8
 73
4
 74
0
 40
0
 40
0
 40
0
 40
0
 40
1
 40
1
 40
1
 40
1
 10
42.398720
 20
129.061449
 30
0.0
 10
42.464026
 20
128.922649
 30
0.0
 10
42.554639
 20
128.816507
 30
0.0
 10
42.670558
 20
128.743021
 30
0.0
  0
SPLINE
  5
1b9
100
AcDbEntity
  8
Layer_1
 62
7
100
AcDbSpline
 70
8
 71
3
 72
8
 73
4
 74
0
 40
0
 40
0
 40
0
 40
0
 40
1
 40
1
 40
1
 40
1
 10
42.670558
 20
128.743021
 30
0.0
 10
42.786477
 20
128.671168
 30
0.0
 10
42.908111
 20
128.635241
 30
0.0
 10
43.035458
 20
128.635241
 30
0.0
  0
SPLINE
  5
1ba
100
AcDbEntity
  8
Layer_1
 62
7
100
AcDbSpline
 70
8
 71
3
 72
8
 73
4
 74
0
 40
0
 40
0
 40
0
 40
0
 40
1
 40
1
 40
1
 40
1
 10
43.035458
 20
128.635241
 30
0.0
 10
43.221582
 20
128.635241
 30
0.0
 10
43.381583
 20
128.710359
 30
0.0
 10
43.515461
 20
128.860594
 30
0.0
  0
SPLINE
  5
1bb
100
AcDbEntity
  8
Layer_1
 62
7
100
AcDbSpline
 70
8
 71
3
 72
8
 73
4
 74
0
 40
0
 40
0
 40
0
 40
0
 40
1
 40
1
 40
1
 40
1
 10
43.515461
 20
128.860594
 30
0.0
 10
43.649339
 20
129.010829
 30
0.0
 10
43.716278
 20
129.214954
 30
0.0
 10
43.716278
 20
129.472969
 30
0.0
  0
SPLINE
  5
1bc
100
AcDbEntity
  8
Layer_1
 62
7
100
AcDbSpline
 70
8
 71
3
 72
8
 73
4
 74
0
 40
0
 40
0
 40
0
 40
0
 40
1
 40
1
 40
1
 40
1
 10
43.716278
 20
129.472969
 30
0.0
 10
43.716278
 20
129.721186
 30
0.0
 10
43.650155
 20
129.916330
 30
0.0
 10
43.517909
 20
130.058399
 30
0.0
  0
SPLINE
  5
1bd
100
AcDbEntity
  8
Layer_1
 62
7
100
AcDbSpline
 70
8
 71
3
 72
8
 73
4
 74
0
 40
0
 40
0
 40
0
 40
0
 40
1
 40
1
 40
1
 40
1
 10
43.517909
 20
130.058399
 30
0.0
 10
43.385664
 20
130.202101
 30
0.0
 10
43.219133
 20
130.273951
 30
0.0
 10
43.018315
 20
130.273951
 30
0.0
  0
SPLINE
  5
1be
100
AcDbEntity
  8
Layer_1
 62
7
100
AcDbSpline
 70
8
 71
3
 72
8
 73
4
 74
0
 40
0
 40
0
 40
0
 40
0
 40
1
 40
1
 40
1
 40
1
 10
43.018315
 20
130.273951
 30
0.0
 10
42.819130
 20
130.273951
 30
0.0
 10
42.650150
 20
130.202101
 30
0.0
 10
42.511374
 20
130.058399
 30
0.0
  0
SPLINE
  5
1bf
100
AcDbEntity
  8
Layer_1
 62
7
100
AcDbSpline
 70
8
 71
3
 72
8
 73
4
 74
0
 40
0
 40
0
 40
0
 40
0
 40
1
 40
1
 40
1
 40
1
 10
42.511374
 20
130.058399
 30
0.0
 10
42.372598
 20
129.916330
 30
0.0
 10
42.303210
 20
129.729352
 30
0.0
 10
42.303210
 20
129.497466
 30
0.0
  0
LWPOLYLINE
  5
1c0
100
AcDbEntity
  8
Layer_1
 62
7
100
AcDbPolyline
 90
1
 70
1
 10
44.103219
 20
131.045549
 30
0.0
  0
LWPOLYLINE
  5
1c1
100
AcDbEntity
  8
Layer_1
 62
7
100
AcDbPolyline
 90
1
 70
1
 10
42.303210
 20
129.497466
 30
0.0
  0
SPLINE
  5
1c2
100
AcDbEntity
  8
Layer_1
 62
7
100
AcDbSpline
 70
8
 71
3
 72
8
 73
4
 74
0
 40
0
 40
0
 40
0
 40
0
 40
1
 40
1
 40
1
 40
1
 10
42.278720
 20
124.133431
 30
0.0
 10
42.313005
 20
123.908078
 30
0.0
 10
42.392190
 20
123.738248
 30
0.0
 10
42.516272
 20
123.623939
 30
0.0
  0
SPLINE
  5
1c3
100
AcDbEntity
  8
Layer_1
 62
7
100
AcDbSpline
 70
8
 71
3
 72
8
 73
4
 74
0
 40
0
 40
0
 40
0
 40
0
 40
1
 40
1
 40
1
 40
1
 10
42.516272
 20
123.623939
 30
0.0
 10
42.641987
 20
123.511258
 30
0.0
 10
42.793008
 20
123.454917
 30
0.0
 10
42.969336
 20
123.454917
 30
0.0
  0
SPLINE
  5
1c4
100
AcDbEntity
  8
Layer_1
 62
7
100
AcDbSpline
 70
8
 71
3
 72
8
 73
4
 74
0
 40
0
 40
0
 40
0
 40
0
 40
1
 40
1
 40
1
 40
1
 10
42.969336
 20
123.454917
 30
0.0
 10
43.181581
 20
123.454917
 30
0.0
 10
43.361174
 20
123.534936
 30
0.0
 10
43.508114
 20
123.694974
 30
0.0
  0
SPLINE
  5
1c5
100
AcDbEntity
  8
Layer_1
 62
7
100
AcDbSpline
 70
8
 71
3
 72
8
 73
4
 74
0
 40
0
 40
0
 40
0
 40
0
 40
1
 40
1
 40
1
 40
1
 10
43.508114
 20
123.694974
 30
0.0
 10
43.655054
 20
123.855007
 30
0.0
 10
43.728524
 20
124.067295
 30
0.0
 10
43.728524
 20
124.331838
 30
0.0
  0
SPLINE
  5
1c6
100
AcDbEntity
  8
Layer_1
 62
7
100
AcDbSpline
 70
8
 71
3
 72
8
 73
4
 74
0
 40
0
 40
0
 40
0
 40
0
 40
1
 40
1
 40
1
 40
1
 10
43.728524
 20
124.331838
 30
0.0
 10
43.728524
 20
124.583320
 30
0.0
 10
43.657503
 20
124.781730
 30
0.0
 10
43.515461
 20
124.927069
 30
0.0
  0
SPLINE
  5
1c7
100
AcDbEntity
  8
Layer_1
 62
7
100
AcDbSpline
 70
8
 71
3
 72
8
 73
4
 74
0
 40
0
 40
0
 40
0
 40
0
 40
1
 40
1
 40
1
 40
1
 10
43.515461
 20
124.927069
 30
0.0
 10
43.375052
 20
125.072408
 30
0.0
 10
43.190561
 20
125.145077
 30
0.0
 10
42.961988
 20
125.145077
 30
0.0
  0
SPLINE
  5
1c8
100
AcDbEntity
  8
Layer_1
 62
7
100
AcDbSpline
 70
8
 71
3
 72
8
 73
4
 74
0
 40
0
 40
0
 40
0
 40
0
 40
1
 40
1
 40
1
 40
1
 10
42.961988
 20
125.145077
 30
0.0
 10
42.819947
 20
125.145077
 30
0.0
 10
42.691783
 20
125.112417
 30
0.0
 10
42.577496
 20
125.047098
 30
0.0
  0
SPLINE
  5
1c9
100
AcDbEntity
  8
Layer_1
 62
7
100
AcDbSpline
 70
8
 71
3
 72
8
 73
4
 74
0
 40
0
 40
0
 40
0
 40
0
 40
1
 40
1
 40
1
 40
1
 10
42.577496
 20
125.047098
 30
0.0
 10
42.463210
 20
124.983410
 30
0.0
 10
42.373414
 20
124.900127
 30
0.0
 10
42.308107
 20
124.797248
 30
0.0
  0
LWPOLYLINE
  5
1ca
100
AcDbEntity
  8
Layer_1
 62
7
100
AcDbPolyline
 90
2
 70
0
 10
41.815860
 20
124.094237
 30
0.0
 10
42.278720
 20
124.133431
 30
0.0
  0
SPLINE
  5
1cb
100
AcDbEntity
  8
Layer_1
 62
7
100
AcDbSpline
 70
8
 71
3
 72
8
 73
4
 74
0
 40
0
 40
0
 40
0
 40
0
 40
1
 40
1
 40
1
 40
1
 10
42.401169
 20
125.309196
 30
0.0
 10
42.616681
 20
125.459431
 30
0.0
 10
42.842804
 20
125.534548
 30
0.0
 10
43.079540
 20
125.534548
 30
0.0
  0
SPLINE
  5
1cc
100
AcDbEntity
  8
Layer_1
 62
7
100
AcDbSpline
 70
8
 71
3
 72
8
 73
4
 74
0
 40
0
 40
0
 40
0
 40
0
 40
1
 40
1
 40
1
 40
1
 10
43.079540
 20
125.534548
 30
0.0
 10
43.393011
 20
125.534548
 30
0.0
 10
43.657502
 20
125.425952
 30
0.0
 10
43.873014
 20
125.208760
 30
0.0
  0
SPLINE
  5
1cd
100
AcDbEntity
  8
Layer_1
 62
7
100
AcDbSpline
 70
8
 71
3
 72
8
 73
4
 74
0
 40
0
 40
0
 40
0
 40
0
 40
1
 40
1
 40
1
 40
1
 10
43.873014
 20
125.208760
 30
0.0
 10
44.088525
 20
124.991573
 30
0.0
 10
44.196281
 20
124.712330
 30
0.0
 10
44.196281
 20
124.371032
 30
0.0
  0
SPLINE
  5
1ce
100
AcDbEntity
  8
Layer_1
 62
7
100
AcDbSpline
 70
8
 71
3
 72
8
 73
4
 74
0
 40
0
 40
0
 40
0
 40
0
 40
1
 40
1
 40
1
 40
1
 10
44.196281
 20
124.371032
 30
0.0
 10
44.196281
 20
124.046065
 30
0.0
 10
44.101586
 20
123.765190
 30
0.0
 10
43.912197
 20
123.528408
 30
0.0
  0
SPLINE
  5
1cf
100
AcDbEntity
  8
Layer_1
 62
7
100
AcDbSpline
 70
8
 71
3
 72
8
 73
4
 74
0
 40
0
 40
0
 40
0
 40
0
 40
1
 40
1
 40
1
 40
1
 10
43.912197
 20
123.528408
 30
0.0
 10
43.681992
 20
123.237730
 30
0.0
 10
43.367705
 20
123.092391
 30
0.0
 10
42.969336
 20
123.092391
 30
0.0
  0
SPLINE
  5
1d0
100
AcDbEntity
  8
Layer_1
 62
7
100
AcDbSpline
 70
8
 71
3
 72
8
 73
4
 74
0
 40
0
 40
0
 40
0
 40
0
 40
1
 40
1
 40
1
 40
1
 10
42.969336
 20
123.092391
 30
0.0
 10
42.642803
 20
123.092391
 30
0.0
 10
42.375863
 20
123.183840
 30
0.0
 10
42.168515
 20
123.366738
 30
0.0
  0
SPLINE
  5
1d1
100
AcDbEntity
  8
Layer_1
 62
7
100
AcDbSpline
 70
8
 71
3
 72
8
 73
4
 74
0
 40
0
 40
0
 40
0
 40
0
 40
1
 40
1
 40
1
 40
1
 10
42.168515
 20
123.366738
 30
0.0
 10
41.962799
 20
123.549635
 30
0.0
 10
41.845248
 20
123.792135
 30
0.0
 10
41.815860
 20
124.094237
 30
0.0
  0
LWPOLYLINE
  5
1d2
100
AcDbEntity
  8
Layer_1
 62
7
100
AcDbPolyline
 90
7
 70
0
 10
42.308107
 20
124.797248
 30
0.0
 10
41.894228
 20
124.851138
 30
0.0
 10
42.241985
 20
126.695608
 30
0.0
 10
44.027300
 20
126.695608
 30
0.0
 10
44.027300
 20
126.274296
 30
0.0
 10
42.594640
 20
126.274296
 30
0.0
 10
42.401169
 20
125.309196
 30
0.0
  0
LWPOLYLINE
  5
1d3
100
AcDbEntity
  8
Layer_1
 62
7
100
AcDbPolyline
 90
1
 70
1
 10
41.815860
 20
124.094237
 30
0.0
  0
LWPOLYLINE
  5
1d4
100
AcDbEntity
  8
Layer_1
 62
7
100
AcDbPolyline
 90
11
 70
1
 10
43.228929
 20
117.972523
 30
0.0
 10
43.228929
 20
118.832292
 30
0.0
 10
41.671369
 20
118.832292
 30
0.0
 10
41.671369
 20
119.236459
 30
0.0
 10
43.309745
 20
121.563484
 30
0.0
 10
43.669747
 20
121.563484
 30
0.0
 10
43.669747
 20
119.236459
 30
0.0
 10
44.154648
 20
119.236459
 30
0.0
 10
44.154648
 20
118.832292
 30
0.0
 10
43.669747
 20
118.832292
 30
0.0
 10
43.669747
 20
117.972523
 30
0.0
  0
LWPOLYLINE
  5
1d5
100
AcDbEntity
  8
Layer_1
 62
7
100
AcDbPolyline
 90
3
 70
1
 10
43.228929
 20
119.236459
 30
0.0
 10
43.228929
 20
120.855577
 30
0.0
 10
42.104841
 20
119.236459
 30
0.0
  0
SPLINE
  5
1d6
100
AcDbEntity
  8
Layer_1
 62
7
100
AcDbSpline
 70
8
 71
3
 72
8
 73
4
 74
0
 40
0
 40
0
 40
0
 40
0
 40
1
 40
1
 40
1
 40
1
 10
42.259128
 20
113.798941
 30
0.0
 10
42.309740
 20
113.549097
 30
0.0
 10
42.395455
 20
113.368653
 30
0.0
 10
42.516272
 20
113.257609
 30
0.0
  0
SPLINE
  5
1d7
100
AcDbEntity
  8
Layer_1
 62
7
100
AcDbSpline
 70
8
 71
3
 72
8
 73
4
 74
0
 40
0
 40
0
 40
0
 40
0
 40
1
 40
1
 40
1
 40
1
 10
42.516272
 20
113.257609
 30
0.0
 10
42.638721
 20
113.148196
 30
0.0
 10
42.787293
 20
113.093490
 30
0.0
 10
42.961988
 20
113.093490
 30
0.0
  0
SPLINE
  5
1d8
100
AcDbEntity
  8
Layer_1
 62
7
100
AcDbSpline
 70
8
 71
3
 72
8
 73
4
 74
0
 40
0
 40
0
 40
0
 40
0
 40
1
 40
1
 40
1
 40
1
 10
42.961988
 20
113.093490
 30
0.0
 10
43.169337
 20
113.093490
 30
0.0
 10
43.344032
 20
113.165341
 30
0.0
 10
43.486073
 20
113.309042
 30
0.0
  0
SPLINE
  5
1d9
100
AcDbEntity
  8
Layer_1
 62
7
100
AcDbSpline
 70
8
 71
3
 72
8
 73
4
 74
0
 40
0
 40
0
 40
0
 40
0
 40
1
 40
1
 40
1
 40
1
 10
43.486073
 20
113.309042
 30
0.0
 10
43.629747
 20
113.452749
 30
0.0
 10
43.701584
 20
113.630748
 30
0.0
 10
43.701584
 20
113.843039
 30
0.0
  0
SPLINE
  5
1da
100
AcDbEntity
  8
Layer_1
 62
7
100
AcDbSpline
 70
8
 71
3
 72
8
 73
4
 74
0
 40
0
 40
0
 40
0
 40
0
 40
1
 40
1
 40
1
 40
1
 10
43.701584
 20
113.843039
 30
0.0
 10
43.701584
 20
114.045527
 30
0.0
 10
43.635461
 20
114.212090
 30
0.0
 10
43.503216
 20
114.342730
 30
0.0
  0
SPLINE
  5
1db
100
AcDbEntity
  8
Layer_1
 62
7
100
AcDbSpline
 70
8
 71
3
 72
8
 73
4
 74
0
 40
0
 40
0
 40
0
 40
0
 40
1
 40
1
 40
1
 40
1
 10
43.503216
 20
114.342730
 30
0.0
 10
43.370971
 20
114.475007
 30
0.0
 10
43.202806
 20
114.541145
 30
0.0
 10
42.998724
 20
114.541145
 30
0.0
  0
SPLINE
  5
1dc
100
AcDbEntity
  8
Layer_1
 62
7
100
AcDbSpline
 70
8
 71
3
 72
8
 73
4
 74
0
 40
0
 40
0
 40
0
 40
0
 40
1
 40
1
 40
1
 40
1
 10
42.998724
 20
114.541145
 30
0.0
 10
42.915458
 20
114.541145
 30
0.0
 10
42.811784
 20
114.524814
 30
0.0
 10
42.687702
 20
114.492152
 30
0.0
  0
LWPOLYLINE
  5
1dd
100
AcDbEntity
  8
Layer_1
 62
7
100
AcDbPolyline
 90
2
 70
0
 10
41.818309
 20
113.740155
 30
0.0
 10
42.259128
 20
113.798941
 30
0.0
  0
SPLINE
  5
1de
100
AcDbEntity
  8
Layer_1
 62
7
100
AcDbSpline
 70
8
 71
3
 72
8
 73
4
 74
0
 40
0
 40
0
 40
0
 40
0
 40
1
 40
1
 40
1
 40
1
 10
42.736681
 20
114.879174
 30
0.0
 10
42.766069
 20
114.875910
 30
0.0
 10
42.789743
 20
114.874278
 30
0.0
 10
42.807702
 20
114.874278
 30
0.0
  0
SPLINE
  5
1df
100
AcDbEntity
  8
Layer_1
 62
7
100
AcDbSpline
 70
8
 71
3
 72
8
 73
4
 74
0
 40
0
 40
0
 40
0
 40
0
 40
1
 40
1
 40
1
 40
1
 10
42.807702
 20
114.874278
 30
0.0
 10
42.995458
 20
114.874278
 30
0.0
 10
43.164439
 20
114.923267
 30
0.0
 10
43.314644
 20
115.021244
 30
0.0
  0
SPLINE
  5
1e0
100
AcDbEntity
  8
Layer_1
 62
7
100
AcDbSpline
 70
8
 71
3
 72
8
 73
4
 74
0
 40
0
 40
0
 40
0
 40
0
 40
1
 40
1
 40
1
 40
1
 10
43.314644
 20
115.021244
 30
0.0
 10
43.464848
 20
115.119226
 30
0.0
 10
43.539951
 20
115.270280
 30
0.0
 10
43.539951
 20
115.474405
 30
0.0
  0
SPLINE
  5
1e1
100
AcDbEntity
  8
Layer_1
 62
7
100
AcDbSpline
 70
8
 71
3
 72
8
 73
4
 74
0
 40
0
 40
0
 40
0
 40
0
 40
1
 40
1
 40
1
 40
1
 10
43.539951
 20
115.474405
 30
0.0
 10
43.539951
 20
115.636070
 30
0.0
 10
43.485257
 20
115.769976
 30
0.0
 10
43.375869
 20
115.876124
 30
0.0
  0
SPLINE
  5
1e2
100
AcDbEntity
  8
Layer_1
 62
7
100
AcDbSpline
 70
8
 71
3
 72
8
 73
4
 74
0
 40
0
 40
0
 40
0
 40
0
 40
1
 40
1
 40
1
 40
1
 10
43.375869
 20
115.876124
 30
0.0
 10
43.266480
 20
115.982267
 30
0.0
 10
43.125255
 20
116.035338
 30
0.0
 10
42.952192
 20
116.035338
 30
0.0
  0
SPLINE
  5
1e3
100
AcDbEntity
  8
Layer_1
 62
7
100
AcDbSpline
 70
8
 71
3
 72
8
 73
4
 74
0
 40
0
 40
0
 40
0
 40
0
 40
1
 40
1
 40
1
 40
1
 10
42.952192
 20
116.035338
 30
0.0
 10
42.780763
 20
116.035338
 30
0.0
 10
42.637905
 20
115.981448
 30
0.0
 10
42.523619
 20
115.873668
 30
0.0
  0
SPLINE
  5
1e4
100
AcDbEntity
  8
Layer_1
 62
7
100
AcDbSpline
 70
8
 71
3
 72
8
 73
4
 74
0
 40
0
 40
0
 40
0
 40
0
 40
1
 40
1
 40
1
 40
1
 10
42.523619
 20
115.873668
 30
0.0
 10
42.409333
 20
115.765893
 30
0.0
 10
42.335863
 20
115.604229
 30
0.0
 10
42.303210
 20
115.388674
 30
0.0
  0
LWPOLYLINE
  5
1e5
100
AcDbEntity
  8
Layer_1
 62
7
100
AcDbPolyline
 90
2
 70
0
 10
42.687702
 20
114.492152
 30
0.0
 10
42.736681
 20
114.879174
 30
0.0
  0
SPLINE
  5
1e6
100
AcDbEntity
  8
Layer_1
 62
7
100
AcDbSpline
 70
8
 71
3
 72
8
 73
4
 74
0
 40
0
 40
0
 40
0
 40
0
 40
1
 40
1
 40
1
 40
1
 10
41.862391
 20
115.467053
 30
0.0
 10
41.916268
 20
115.762627
 30
0.0
 10
42.038718
 20
115.991246
 30
0.0
 10
42.229740
 20
116.152911
 30
0.0
  0
SPLINE
  5
1e7
100
AcDbEntity
  8
Layer_1
 62
7
100
AcDbSpline
 70
8
 71
3
 72
8
 73
4
 74
0
 40
0
 40
0
 40
0
 40
0
 40
1
 40
1
 40
1
 40
1
 10
42.229740
 20
116.152911
 30
0.0
 10
42.420761
 20
116.316213
 30
0.0
 10
42.658314
 20
116.397864
 30
0.0
 10
42.942396
 20
116.397864
 30
0.0
  0
SPLINE
  5
1e8
100
AcDbEntity
  8
Layer_1
 62
7
100
AcDbSpline
 70
8
 71
3
 72
8
 73
4
 74
0
 40
0
 40
0
 40
0
 40
0
 40
1
 40
1
 40
1
 40
1
 10
42.942396
 20
116.397864
 30
0.0
 10
43.138316
 20
116.397864
 30
0.0
 10
43.318725
 20
116.355406
 30
0.0
 10
43.483624
 20
116.270491
 30
0.0
  0
SPLINE
  5
1e9
100
AcDbEntity
  8
Layer_1
 62
7
100
AcDbSpline
 70
8
 71
3
 72
8
 73
4
 74
0
 40
0
 40
0
 40
0
 40
0
 40
1
 40
1
 40
1
 40
1
 10
43.483624
 20
116.270491
 30
0.0
 10
43.648523
 20
116.187208
 30
0.0
 10
43.774238
 20
116.072897
 30
0.0
 10
43.860769
 20
115.927558
 30
0.0
  0
SPLINE
  5
1ea
100
AcDbEntity
  8
Layer_1
 62
7
100
AcDbSpline
 70
8
 71
3
 72
8
 73
4
 74
0
 40
0
 40
0
 40
0
 40
0
 40
1
 40
1
 40
1
 40
1
 10
43.860769
 20
115.927558
 30
0.0
 10
43.948932
 20
115.782225
 30
0.0
 10
43.993014
 20
115.627907
 30
0.0
 10
43.993014
 20
115.464605
 30
0.0
  0
SPLINE
  5
1eb
100
AcDbEntity
  8
Layer_1
 62
7
100
AcDbSpline
 70
8
 71
3
 72
8
 73
4
 74
0
 40
0
 40
0
 40
0
 40
0
 40
1
 40
1
 40
1
 40
1
 10
43.993014
 20
115.464605
 30
0.0
 10
43.993014
 20
115.309468
 30
0.0
 10
43.951381
 20
115.168215
 30
0.0
 10
43.868116
 20
115.040844
 30
0.0
  0
SPLINE
  5
1ec
100
AcDbEntity
  8
Layer_1
 62
7
100
AcDbSpline
 70
8
 71
3
 72
8
 73
4
 74
0
 40
0
 40
0
 40
0
 40
0
 40
1
 40
1
 40
1
 40
1
 10
43.868116
 20
115.040844
 30
0.0
 10
43.784850
 20
114.913469
 30
0.0
 10
43.661584
 20
114.812222
 30
0.0
 10
43.498318
 20
114.737105
 30
0.0
  0
SPLINE
  5
1ed
100
AcDbEntity
  8
Layer_1
 62
7
100
AcDbSpline
 70
8
 71
3
 72
8
 73
4
 74
0
 40
0
 40
0
 40
0
 40
0
 40
1
 40
1
 40
1
 40
1
 10
43.498318
 20
114.737105
 30
0.0
 10
43.710564
 20
114.688111
 30
0.0
 10
43.875463
 20
114.586048
 30
0.0
 10
43.993014
 20
114.430917
 30
0.0
  0
SPLINE
  5
1ee
100
AcDbEntity
  8
Layer_1
 62
7
100
AcDbSpline
 70
8
 71
3
 72
8
 73
4
 74
0
 40
0
 40
0
 40
0
 40
0
 40
1
 40
1
 40
1
 40
1
 10
43.993014
 20
114.430917
 30
0.0
 10
44.110566
 20
114.277413
 30
0.0
 10
44.169342
 20
114.084717
 30
0.0
 10
44.169342
 20
113.852831
 30
0.0
  0
SPLINE
  5
1ef
100
AcDbEntity
  8
Layer_1
 62
7
100
AcDbSpline
 70
8
 71
3
 72
8
 73
4
 74
0
 40
0
 40
0
 40
0
 40
0
 40
1
 40
1
 40
1
 40
1
 10
44.169342
 20
113.852831
 30
0.0
 10
44.169342
 20
113.539299
 30
0.0
 10
44.055056
 20
113.273121
 30
0.0
 10
43.826483
 20
113.054297
 30
0.0
  0
SPLINE
  5
1f0
100
AcDbEntity
  8
Layer_1
 62
7
100
AcDbSpline
 70
8
 71
3
 72
8
 73
4
 74
0
 40
0
 40
0
 40
0
 40
0
 40
1
 40
1
 40
1
 40
1
 10
43.826483
 20
113.054297
 30
0.0
 10
43.597910
 20
112.837110
 30
0.0
 10
43.308929
 20
112.728516
 30
0.0
 10
42.959540
 20
112.728516
 30
0.0
  0
SPLINE
  5
1f1
100
AcDbEntity
  8
Layer_1
 62
7
100
AcDbSpline
 70
8
 71
3
 72
8
 73
4
 74
0
 40
0
 40
0
 40
0
 40
0
 40
1
 40
1
 40
1
 40
1
 10
42.959540
 20
112.728516
 30
0.0
 10
42.644436
 20
112.728516
 30
0.0
 10
42.382393
 20
112.822413
 30
0.0
 10
42.173413
 20
113.010207
 30
0.0
  0
SPLINE
  5
1f2
100
AcDbEntity
  8
Layer_1
 62
7
100
AcDbSpline
 70
8
 71
3
 72
8
 73
4
 74
0
 40
0
 40
0
 40
0
 40
0
 40
1
 40
1
 40
1
 40
1
 10
42.173413
 20
113.010207
 30
0.0
 10
41.966065
 20
113.198001
 30
0.0
 10
41.847697
 20
113.441317
 30
0.0
 10
41.818309
 20
113.740155
 30
0.0
  0
LWPOLYLINE
  5
1f3
100
AcDbEntity
  8
Layer_1
 62
7
100
AcDbPolyline
 90
2
 70
0
 10
42.303210
 20
115.388674
 30
0.0
 10
41.862391
 20
115.467053
 30
0.0
  0
LWPOLYLINE
  5
1f4
100
AcDbEntity
  8
Layer_1
 62
7
100
AcDbPolyline
 90
1
 70
1
 10
41.818309
 20
113.740155
 30
0.0
  0
SPLINE
  5
1f5
100
AcDbEntity
  8
Layer_1
 62
7
100
AcDbSpline
 70
8
 71
3
 72
8
 73
4
 74
0
 40
0
 40
0
 40
0
 40
0
 40
1
 40
1
 40
1
 40
1
 10
41.759533
 20
107.611080
 30
0.0
 10
41.756269
 20
107.717223
 30
0.0
 10
41.773412
 20
107.819285
 30
0.0
 10
41.810962
 20
107.917268
 30
0.0
  0
SPLINE
  5
1f6
100
AcDbEntity
  8
Layer_1
 62
7
100
AcDbSpline
 70
8
 71
3
 72
8
 73
4
 74
0
 40
0
 40
0
 40
0
 40
0
 40
1
 40
1
 40
1
 40
1
 10
41.810962
 20
107.917268
 30
0.0
 10
41.871370
 20
108.078933
 30
0.0
 10
41.967697
 20
108.238149
 30
0.0
 10
42.099943
 20
108.394918
 30
0.0
  0
SPLINE
  5
1f7
100
AcDbEntity
  8
Layer_1
 62
7
100
AcDbSpline
 70
8
 71
3
 72
8
 73
4
 74
0
 40
0
 40
0
 40
0
 40
0
 40
1
 40
1
 40
1
 40
1
 10
42.099943
 20
108.394918
 30
0.0
 10
42.233822
 20
108.551687
 30
0.0
 10
42.426476
 20
108.732949
 30
0.0
 10
42.677906
 20
108.938707
 30
0.0
  0
SPLINE
  5
1f8
100
AcDbEntity
  8
Layer_1
 62
7
100
AcDbSpline
 70
8
 71
3
 72
8
 73
4
 74
0
 40
0
 40
0
 40
0
 40
0
 40
1
 40
1
 40
1
 40
1
 10
42.677906
 20
108.938707
 30
0.0
 10
43.068112
 20
109.258772
 30
0.0
 10
43.331787
 20
109.511886
 30
0.0
 10
43.468930
 20
109.698048
 30
0.0
  0
SPLINE
  5
1f9
100
AcDbEntity
  8
Layer_1
 62
7
100
AcDbSpline
 70
8
 71
3
 72
8
 73
4
 74
0
 40
0
 40
0
 40
0
 40
0
 40
1
 40
1
 40
1
 40
1
 10
43.468930
 20
109.698048
 30
0.0
 10
43.606074
 20
109.885847
 30
0.0
 10
43.674645
 20
110.063029
 30
0.0
 10
43.674645
 20
110.229596
 30
0.0
  0
SPLINE
  5
1fa
100
AcDbEntity
  8
Layer_1
 62
7
100
AcDbSpline
 70
8
 71
3
 72
8
 73
4
 74
0
 40
0
 40
0
 40
0
 40
0
 40
1
 40
1
 40
1
 40
1
 10
43.674645
 20
110.229596
 30
0.0
 10
43.674645
 20
110.404322
 30
0.0
 10
43.611788
 20
110.551291
 30
0.0
 10
43.486073
 20
110.670501
 30
0.0
  0
SPLINE
  5
1fb
100
AcDbEntity
  8
Layer_1
 62
7
100
AcDbSpline
 70
8
 71
3
 72
8
 73
4
 74
0
 40
0
 40
0
 40
0
 40
0
 40
1
 40
1
 40
1
 40
1
 10
43.486073
 20
110.670501
 30
0.0
 10
43.361991
 20
110.791343
 30
0.0
 10
43.199541
 20
110.851763
 30
0.0
 10
42.998724
 20
110.851763
 30
0.0
  0
SPLINE
  5
1fc
100
AcDbEntity
  8
Layer_1
 62
7
100
AcDbSpline
 70
8
 71
3
 72
8
 73
4
 74
0
 40
0
 40
0
 40
0
 40
0
 40
1
 40
1
 40
1
 40
1
 10
42.998724
 20
110.851763
 30
0.0
 10
42.786477
 20
110.851763
 30
0.0
 10
42.616680
 20
110.788078
 30
0.0
 10
42.489333
 20
110.660708
 30
0.0
  0
SPLINE
  5
1fd
100
AcDbEntity
  8
Layer_1
 62
7
100
AcDbSpline
 70
8
 71
3
 72
8
 73
4
 74
0
 40
0
 40
0
 40
0
 40
0
 40
1
 40
1
 40
1
 40
1
 10
42.489333
 20
110.660708
 30
0.0
 10
42.361985
 20
110.533333
 30
0.0
 10
42.297495
 20
110.356969
 30
0.0
 10
42.295862
 20
110.131616
 30
0.0
  0
LWPOLYLINE
  5
1fe
100
AcDbEntity
  8
Layer_1
 62
7
100
AcDbPolyline
 90
3
 70
0
 10
44.132607
 20
108.034840
 30
0.0
 10
44.132607
 20
107.611080
 30
0.0
 10
41.759533
 20
107.611080
 30
0.0
  0
SPLINE
  5
1ff
100
AcDbEntity
  8
Layer_1
 62
7
100
AcDbSpline
 70
8
 71
3
 72
8
 73
4
 74
0
 40
0
 40
0
 40
0
 40
0
 40
1
 40
1
 40
1
 40
1
 10
41.842799
 20
110.178154
 30
0.0
 10
41.873820
 20
110.516183
 30
0.0
 10
41.990555
 20
110.773379
 30
0.0
 10
42.193004
 20
110.949743
 30
0.0
  0
SPLINE
  5
200
100
AcDbEntity
  8
Layer_1
 62
7
100
AcDbSpline
 70
8
 71
3
 72
8
 73
4
 74
0
 40
0
 40
0
 40
0
 40
0
 40
1
 40
1
 40
1
 40
1
 10
42.193004
 20
110.949743
 30
0.0
 10
42.395454
 20
111.127739
 30
0.0
 10
42.667293
 20
111.216737
 30
0.0
 10
43.008520
 20
111.216737
 30
0.0
  0
SPLINE
  5
201
100
AcDbEntity
  8
Layer_1
 62
7
100
AcDbSpline
 70
8
 71
3
 72
8
 73
4
 74
0
 40
0
 40
0
 40
0
 40
0
 40
1
 40
1
 40
1
 40
1
 10
43.008520
 20
111.216737
 30
0.0
 10
43.353011
 20
111.216737
 30
0.0
 10
43.625666
 20
111.121208
 30
0.0
 10
43.826483
 20
110.930150
 30
0.0
  0
SPLINE
  5
202
100
AcDbEntity
  8
Layer_1
 62
7
100
AcDbSpline
 70
8
 71
3
 72
8
 73
4
 74
0
 40
0
 40
0
 40
0
 40
0
 40
1
 40
1
 40
1
 40
1
 10
43.826483
 20
110.930150
 30
0.0
 10
44.027300
 20
110.739087
 30
0.0
 10
44.127709
 20
110.502302
 30
0.0
 10
44.127709
 20
110.219795
 30
0.0
  0
SPLINE
  5
203
100
AcDbEntity
  8
Layer_1
 62
7
100
AcDbSpline
 70
8
 71
3
 72
8
 73
4
 74
0
 40
0
 40
0
 40
0
 40
0
 40
1
 40
1
 40
1
 40
1
 10
44.127709
 20
110.219795
 30
0.0
 10
44.127709
 20
110.076089
 30
0.0
 10
44.098321
 20
109.934835
 30
0.0
 10
44.039545
 20
109.796035
 30
0.0
  0
SPLINE
  5
204
100
AcDbEntity
  8
Layer_1
 62
7
100
AcDbSpline
 70
8
 71
3
 72
8
 73
4
 74
0
 40
0
 40
0
 40
0
 40
0
 40
1
 40
1
 40
1
 40
1
 10
44.039545
 20
109.796035
 30
0.0
 10
43.980770
 20
109.657230
 30
0.0
 10
43.882810
 20
109.511075
 30
0.0
 10
43.745666
 20
109.357571
 30
0.0
  0
SPLINE
  5
205
100
AcDbEntity
  8
Layer_1
 62
7
100
AcDbSpline
 70
8
 71
3
 72
8
 73
4
 74
0
 40
0
 40
0
 40
0
 40
0
 40
1
 40
1
 40
1
 40
1
 10
43.745666
 20
109.357571
 30
0.0
 10
43.610155
 20
109.204071
 30
0.0
 10
43.384032
 20
108.993415
 30
0.0
 10
43.067295
 20
108.725603
 30
0.0
  0
SPLINE
  5
206
100
AcDbEntity
  8
Layer_1
 62
7
100
AcDbSpline
 70
8
 71
3
 72
8
 73
4
 74
0
 40
0
 40
0
 40
0
 40
0
 40
1
 40
1
 40
1
 40
1
 10
43.067295
 20
108.725603
 30
0.0
 10
42.802804
 20
108.503514
 30
0.0
 10
42.633007
 20
108.352460
 30
0.0
 10
42.557904
 20
108.272441
 30
0.0
  0
SPLINE
  5
207
100
AcDbEntity
  8
Layer_1
 62
7
100
AcDbSpline
 70
8
 71
3
 72
8
 73
4
 74
0
 40
0
 40
0
 40
0
 40
0
 40
1
 40
1
 40
1
 40
1
 10
42.557904
 20
108.272441
 30
0.0
 10
42.482802
 20
108.194060
 30
0.0
 10
42.420761
 20
108.114859
 30
0.0
 10
42.371781
 20
108.034840
 30
0.0
  0
LWPOLYLINE
  5
208
100
AcDbEntity
  8
Layer_1
 62
7
100
AcDbPolyline
 90
2
 70
0
 10
42.295862
 20
110.131616
 30
0.0
 10
41.842799
 20
110.178154
 30
0.0
  0
LWPOLYLINE
  5
209
100
AcDbEntity
  8
Layer_1
 62
7
100
AcDbPolyline
 90
2
 70
0
 10
42.371781
 20
108.034840
 30
0.0
 10
44.132607
 20
108.034840
 30
0.0
  0
SPLINE
  5
20a
100
AcDbEntity
  8
Layer_1
 62
7
100
AcDbSpline
 70
8
 71
3
 72
8
 73
4
 74
0
 40
0
 40
0
 40
0
 40
0
 40
1
 40
1
 40
1
 40
1
 10
43.035458
 20
105.240343
 30
0.0
 10
42.929335
 20
105.139097
 30
0.0
 10
42.789743
 20
105.037850
 30
0.0
 10
42.616681
 20
104.936603
 30
0.0
  0
SPLINE
  5
20b
100
AcDbEntity
  8
Layer_1
 62
7
100
AcDbSpline
 70
8
 71
3
 72
8
 73
4
 74
0
 40
0
 40
0
 40
0
 40
0
 40
1
 40
1
 40
1
 40
1
 10
42.616681
 20
104.936603
 30
0.0
 10
42.445251
 20
104.835357
 30
0.0
 10
42.290964
 20
104.759423
 30
0.0
 10
42.153821
 20
104.708803
 30
0.0
  0
LWPOLYLINE
  5
20c
100
AcDbEntity
  8
Layer_1
 62
7
100
AcDbPolyline
 90
3
 70
0
 10
43.476277
 20
102.430772
 30
0.0
 10
43.035458
 20
102.430772
 30
0.0
 10
43.035458
 20
105.240343
 30
0.0
  0
SPLINE
  5
20d
100
AcDbEntity
  8
Layer_1
 62
7
100
AcDbSpline
 70
8
 71
3
 72
8
 73
4
 74
0
 40
0
 40
0
 40
0
 40
0
 40
1
 40
1
 40
1
 40
1
 10
42.153821
 20
105.135019
 30
0.0
 10
42.400353
 20
105.250959
 30
0.0
 10
42.615864
 20
105.391397
 30
0.0
 10
42.800355
 20
105.556331
 30
0.0
  0
SPLINE
  5
20e
100
AcDbEntity
  8
Layer_1
 62
7
100
AcDbSpline
 70
8
 71
3
 72
8
 73
4
 74
0
 40
0
 40
0
 40
0
 40
0
 40
1
 40
1
 40
1
 40
1
 10
42.800355
 20
105.556331
 30
0.0
 10
42.984846
 20
105.721265
 30
0.0
 10
43.115459
 20
105.881298
 30
0.0
 10
43.192194
 20
106.036429
 30
0.0
  0
LWPOLYLINE
  5
20f
100
AcDbEntity
  8
Layer_1
 62
7
100
AcDbPolyline
 90
2
 70
0
 10
42.153821
 20
104.708803
 30
0.0
 10
42.153821
 20
105.135019
 30
0.0
  0
LWPOLYLINE
  5
210
100
AcDbEntity
  8
Layer_1
 62
7
100
AcDbPolyline
 90
3
 70
0
 10
43.192194
 20
106.036429
 30
0.0
 10
43.476277
 20
106.036429
 30
0.0
 10
43.476277
 20
102.430772
 30
0.0
  0
SPLINE
  5
211
100
AcDbEntity
  8
Layer_1
 62
7
100
AcDbSpline
 70
8
 71
3
 72
8
 73
4
 74
0
 40
0
 40
0
 40
0
 40
0
 40
1
 40
1
 40
1
 40
1
 10
108.516138
 20
162.368024
 30
0.0
 10
108.479063
 20
162.531808
 30
0.0
 10
108.426539
 20
162.650783
 30
0.0
 10
108.358567
 20
162.724949
 30
0.0
  0
SPLINE
  5
212
100
AcDbEntity
  8
Layer_1
 62
7
100
AcDbSpline
 70
8
 71
3
 72
8
 73
4
 74
0
 40
0
 40
0
 40
0
 40
0
 40
1
 40
1
 40
1
 40
1
 10
108.358567
 20
162.724949
 30
0.0
 10
108.245796
 20
162.843925
 30
0.0
 10
108.106762
 20
162.903412
 30
0.0
 10
107.941467
 20
162.903412
 30
0.0
  0
SPLINE
  5
213
100
AcDbEntity
  8
Layer_1
 62
7
100
AcDbSpline
 70
8
 71
3
 72
8
 73
4
 74
0
 40
0
 40
0
 40
0
 40
0
 40
1
 40
1
 40
1
 40
1
 10
107.941467
 20
162.903412
 30
0.0
 10
107.808613
 20
162.903412
 30
0.0
 10
107.691980
 20
162.866329
 30
0.0
 10
107.591567
 20
162.792163
 30
0.0
  0
SPLINE
  5
214
100
AcDbEntity
  8
Layer_1
 62
7
100
AcDbSpline
 70
8
 71
3
 72
8
 73
4
 74
0
 40
0
 40
0
 40
0
 40
0
 40
1
 40
1
 40
1
 40
1
 10
107.591567
 20
162.792163
 30
0.0
 10
107.460258
 20
162.696365
 30
0.0
 10
107.356755
 20
162.556530
 30
0.0
 10
107.281060
 20
162.372659
 30
0.0
  0
SPLINE
  5
215
100
AcDbEntity
  8
Layer_1
 62
7
100
AcDbSpline
 70
8
 71
3
 72
8
 73
4
 74
0
 40
0
 40
0
 40
0
 40
0
 40
1
 40
1
 40
1
 40
1
 10
107.281060
 20
162.372659
 30
0.0
 10
107.205364
 20
162.188788
 30
0.0
 10
107.165971
 20
161.926888
 30
0.0
 10
107.162881
 20
161.586959
 30
0.0
  0
SPLINE
  5
216
100
AcDbEntity
  8
Layer_1
 62
7
100
AcDbSpline
 70
8
 71
3
 72
8
 73
4
 74
0
 40
0
 40
0
 40
0
 40
0
 40
1
 40
1
 40
1
 40
1
 10
107.162881
 20
161.586959
 30
0.0
 10
107.263294
 20
161.739927
 30
0.0
 10
107.386107
 20
161.853495
 30
0.0
 10
107.531320
 20
161.927661
 30
0.0
  0
SPLINE
  5
217
100
AcDbEntity
  8
Layer_1
 62
7
100
AcDbSpline
 70
8
 71
3
 72
8
 73
4
 74
0
 40
0
 40
0
 40
0
 40
0
 40
1
 40
1
 40
1
 40
1
 10
107.531320
 20
161.927661
 30
0.0
 10
107.676532
 20
162.001827
 30
0.0
 10
107.828696
 20
162.038910
 30
0.0
 10
107.987812
 20
162.038910
 30
0.0
  0
SPLINE
  5
218
100
AcDbEntity
  8
Layer_1
 62
7
100
AcDbSpline
 70
8
 71
3
 72
8
 73
4
 74
0
 40
0
 40
0
 40
0
 40
0
 40
1
 40
1
 40
1
 40
1
 10
107.987812
 20
162.038910
 30
0.0
 10
108.265878
 20
162.038910
 30
0.0
 10
108.502235
 20
161.936159
 30
0.0
 10
108.696881
 20
161.730656
 30
0.0
  0
SPLINE
  5
219
100
AcDbEntity
  8
Layer_1
 62
7
100
AcDbSpline
 70
8
 71
3
 72
8
 73
4
 74
0
 40
0
 40
0
 40
0
 40
0
 40
1
 40
1
 40
1
 40
1
 10
108.696881
 20
161.730656
 30
0.0
 10
108.893073
 20
161.526699
 30
0.0
 10
108.991168
 20
161.262481
 30
0.0
 10
108.991168
 20
160.938003
 30
0.0
  0
SPLINE
  5
21a
100
AcDbEntity
  8
Layer_1
 62
7
100
AcDbSpline
 70
8
 71
3
 72
8
 73
4
 74
0
 40
0
 40
0
 40
0
 40
0
 40
1
 40
1
 40
1
 40
1
 10
108.991168
 20
160.938003
 30
0.0
 10
108.991168
 20
160.724775
 30
0.0
 10
108.944824
 20
160.526225
 30
0.0
 10
108.852135
 20
160.342354
 30
0.0
  0
SPLINE
  5
21b
100
AcDbEntity
  8
Layer_1
 62
7
100
AcDbSpline
 70
8
 71
3
 72
8
 73
4
 74
0
 40
0
 40
0
 40
0
 40
0
 40
1
 40
1
 40
1
 40
1
 10
108.852135
 20
160.342354
 30
0.0
 10
108.760991
 20
160.160028
 30
0.0
 10
108.635089
 20
160.020194
 30
0.0
 10
108.474428
 20
159.922850
 30
0.0
  0
SPLINE
  5
21c
100
AcDbEntity
  8
Layer_1
 62
7
100
AcDbSpline
 70
8
 71
3
 72
8
 73
4
 74
0
 40
0
 40
0
 40
0
 40
0
 40
1
 40
1
 40
1
 40
1
 10
108.474428
 20
159.922850
 30
0.0
 10
108.313767
 20
159.825507
 30
0.0
 10
108.131479
 20
159.776835
 30
0.0
 10
107.927564
 20
159.776835
 30
0.0
  0
SPLINE
  5
21d
100
AcDbEntity
  8
Layer_1
 62
7
100
AcDbSpline
 70
8
 71
3
 72
8
 73
4
 74
0
 40
0
 40
0
 40
0
 40
0
 40
1
 40
1
 40
1
 40
1
 10
107.927564
 20
159.776835
 30
0.0
 10
107.579981
 20
159.776835
 30
0.0
 10
107.296508
 20
159.904309
 30
0.0
 10
107.077144
 20
160.159256
 30
0.0
  0
SPLINE
  5
21e
100
AcDbEntity
  8
Layer_1
 62
7
100
AcDbSpline
 70
8
 71
3
 72
8
 73
4
 74
0
 40
0
 40
0
 40
0
 40
0
 40
1
 40
1
 40
1
 40
1
 10
107.077144
 20
160.159256
 30
0.0
 10
106.857781
 20
160.415748
 30
0.0
 10
106.748099
 20
160.837569
 30
0.0
 10
106.748099
 20
161.424720
 30
0.0
  0
SPLINE
  5
21f
100
AcDbEntity
  8
Layer_1
 62
7
100
AcDbSpline
 70
8
 71
3
 72
8
 73
4
 74
0
 40
0
 40
0
 40
0
 40
0
 40
1
 40
1
 40
1
 40
1
 10
106.748099
 20
161.424720
 30
0.0
 10
106.748099
 20
162.081402
 30
0.0
 10
106.869367
 20
162.558848
 30
0.0
 10
107.111903
 20
162.857059
 30
0.0
  0
SPLINE
  5
220
100
AcDbEntity
  8
Layer_1
 62
7
100
AcDbSpline
 70
8
 71
3
 72
8
 73
4
 74
0
 40
0
 40
0
 40
0
 40
0
 40
1
 40
1
 40
1
 40
1
 10
107.111903
 20
162.857059
 30
0.0
 10
107.323542
 20
163.116641
 30
0.0
 10
107.608560
 20
163.246432
 30
0.0
 10
107.966957
 20
163.246432
 30
0.0
  0
SPLINE
  5
221
100
AcDbEntity
  8
Layer_1
 62
7
100
AcDbSpline
 70
8
 71
3
 72
8
 73
4
 74
0
 40
0
 40
0
 40
0
 40
0
 40
1
 40
1
 40
1
 40
1
 10
107.966957
 20
163.246432
 30
0.0
 10
108.234209
 20
163.246432
 30
0.0
 10
108.452800
 20
163.171493
 30
0.0
 10
108.622730
 20
163.021615
 30
0.0
  0
SPLINE
  5
222
100
AcDbEntity
  8
Layer_1
 62
7
100
AcDbSpline
 70
8
 71
3
 72
8
 73
4
 74
0
 40
0
 40
0
 40
0
 40
0
 40
1
 40
1
 40
1
 40
1
 10
108.622730
 20
163.021615
 30
0.0
 10
108.794204
 20
162.871737
 30
0.0
 10
108.896934
 20
162.664689
 30
0.0
 10
108.930920
 20
162.400471
 30
0.0
  0
LWPOLYLINE
  5
223
100
AcDbEntity
  8
Layer_1
 62
7
100
AcDbPolyline
 90
2
 70
0
 10
108.930920
 20
162.400471
 30
0.0
 10
108.516138
 20
162.368024
 30
0.0
  0
SPLINE
  5
224
100
AcDbEntity
  8
Layer_1
 62
7
100
AcDbSpline
 70
8
 71
3
 72
8
 73
4
 74
0
 40
0
 40
0
 40
0
 40
0
 40
1
 40
1
 40
1
 40
1
 10
107.227763
 20
160.935685
 30
0.0
 10
107.227763
 20
160.791988
 30
0.0
 10
107.257887
 20
160.654471
 30
0.0
 10
107.318135
 20
160.523134
 30
0.0
  0
SPLINE
  5
225
100
AcDbEntity
  8
Layer_1
 62
7
100
AcDbSpline
 70
8
 71
3
 72
8
 73
4
 74
0
 40
0
 40
0
 40
0
 40
0
 40
1
 40
1
 40
1
 40
1
 10
107.318135
 20
160.523134
 30
0.0
 10
107.379928
 20
160.391798
 30
0.0
 10
107.465665
 20
160.291365
 30
0.0
 10
107.575347
 20
160.221834
 30
0.0
  0
SPLINE
  5
226
100
AcDbEntity
  8
Layer_1
 62
7
100
AcDbSpline
 70
8
 71
3
 72
8
 73
4
 74
0
 40
0
 40
0
 40
0
 40
0
 40
1
 40
1
 40
1
 40
1
 10
107.575347
 20
160.221834
 30
0.0
 10
107.685029
 20
160.153848
 30
0.0
 10
107.800117
 20
160.119855
 30
0.0
 10
107.920612
 20
160.119855
 30
0.0
  0
SPLINE
  5
227
100
AcDbEntity
  8
Layer_1
 62
7
100
AcDbSpline
 70
8
 71
3
 72
8
 73
4
 74
0
 40
0
 40
0
 40
0
 40
0
 40
1
 40
1
 40
1
 40
1
 10
107.920612
 20
160.119855
 30
0.0
 10
108.096721
 20
160.119855
 30
0.0
 10
108.248113
 20
160.190931
 30
0.0
 10
108.374788
 20
160.333084
 30
0.0
  0
SPLINE
  5
228
100
AcDbEntity
  8
Layer_1
 62
7
100
AcDbSpline
 70
8
 71
3
 72
8
 73
4
 74
0
 40
0
 40
0
 40
0
 40
0
 40
1
 40
1
 40
1
 40
1
 10
108.374788
 20
160.333084
 30
0.0
 10
108.501462
 20
160.475236
 30
0.0
 10
108.564799
 20
160.668377
 30
0.0
 10
108.564799
 20
160.912508
 30
0.0
  0
SPLINE
  5
229
100
AcDbEntity
  8
Layer_1
 62
7
100
AcDbSpline
 70
8
 71
3
 72
8
 73
4
 74
0
 40
0
 40
0
 40
0
 40
0
 40
1
 40
1
 40
1
 40
1
 10
108.564799
 20
160.912508
 30
0.0
 10
108.564799
 20
161.147368
 30
0.0
 10
108.502234
 20
161.332012
 30
0.0
 10
108.377105
 20
161.466439
 30
0.0
  0
SPLINE
  5
22a
100
AcDbEntity
  8
Layer_1
 62
7
100
AcDbSpline
 70
8
 71
3
 72
8
 73
4
 74
0
 40
0
 40
0
 40
0
 40
0
 40
1
 40
1
 40
1
 40
1
 10
108.377105
 20
161.466439
 30
0.0
 10
108.251975
 20
161.602410
 30
0.0
 10
108.094404
 20
161.670396
 30
0.0
 10
107.904392
 20
161.670396
 30
0.0
  0
SPLINE
  5
22b
100
AcDbEntity
  8
Layer_1
 62
7
100
AcDbSpline
 70
8
 71
3
 72
8
 73
4
 74
0
 40
0
 40
0
 40
0
 40
0
 40
1
 40
1
 40
1
 40
1
 10
107.904392
 20
161.670396
 30
0.0
 10
107.715924
 20
161.670396
 30
0.0
 10
107.556036
 20
161.602410
 30
0.0
 10
107.424727
 20
161.466439
 30
0.0
  0
SPLINE
  5
22c
100
AcDbEntity
  8
Layer_1
 62
7
100
AcDbSpline
 70
8
 71
3
 72
8
 73
4
 74
0
 40
0
 40
0
 40
0
 40
0
 40
1
 40
1
 40
1
 40
1
 10
107.424727
 20
161.466439
 30
0.0
 10
107.293418
 20
161.332012
 30
0.0
 10
107.227763
 20
161.155094
 30
0.0
 10
107.227763
 20
160.935685
 30
0.0
  0
LWPOLYLINE
  5
22d
100
AcDbEntity
  8
Layer_1
 62
7
100
AcDbPolyline
 90
1
 70
1
 10
108.930920
 20
162.400471
 30
0.0
  0
SPLINE
  5
22e
100
AcDbEntity
  8
Layer_1
 62
7
100
AcDbSpline
 70
8
 71
3
 72
8
 73
4
 74
0
 40
0
 40
0
 40
0
 40
0
 40
1
 40
1
 40
1
 40
1
 10
109.408267
 20
161.510475
 30
0.0
 10
109.408267
 20
161.912210
 30
0.0
 10
109.449205
 20
162.235142
 30
0.0
 10
109.531080
 20
162.479273
 30
0.0
  0
SPLINE
  5
22f
100
AcDbEntity
  8
Layer_1
 62
7
100
AcDbSpline
 70
8
 71
3
 72
8
 73
4
 74
0
 40
0
 40
0
 40
0
 40
0
 40
1
 40
1
 40
1
 40
1
 10
109.531080
 20
162.479273
 30
0.0
 10
109.614500
 20
162.724949
 30
0.0
 10
109.737313
 20
162.914228
 30
0.0
 10
109.899518
 20
163.047110
 30
0.0
  0
SPLINE
  5
230
100
AcDbEntity
  8
Layer_1
 62
7
100
AcDbSpline
 70
8
 71
3
 72
8
 73
4
 74
0
 40
0
 40
0
 40
0
 40
0
 40
1
 40
1
 40
1
 40
1
 10
109.899518
 20
163.047110
 30
0.0
 10
110.063268
 20
163.179991
 30
0.0
 10
110.268729
 20
163.246432
 30
0.0
 10
110.515899
 20
163.246432
 30
0.0
  0
SPLINE
  5
231
100
AcDbEntity
  8
Layer_1
 62
7
100
AcDbSpline
 70
8
 71
3
 72
8
 73
4
 74
0
 40
0
 40
0
 40
0
 40
0
 40
1
 40
1
 40
1
 40
1
 10
110.515899
 20
163.246432
 30
0.0
 10
110.698187
 20
163.246432
 30
0.0
 10
110.858075
 20
163.209349
 30
0.0
 10
110.995563
 20
163.135182
 30
0.0
  0
SPLINE
  5
232
100
AcDbEntity
  8
Layer_1
 62
7
100
AcDbSpline
 70
8
 71
3
 72
8
 73
4
 74
0
 40
0
 40
0
 40
0
 40
0
 40
1
 40
1
 40
1
 40
1
 10
110.995563
 20
163.135182
 30
0.0
 10
111.133052
 20
163.062561
 30
0.0
 10
111.246596
 20
162.956720
 30
0.0
 10
111.336195
 20
162.817658
 30
0.0
  0
SPLINE
  5
233
100
AcDbEntity
  8
Layer_1
 62
7
100
AcDbSpline
 70
8
 71
3
 72
8
 73
4
 74
0
 40
0
 40
0
 40
0
 40
0
 40
1
 40
1
 40
1
 40
1
 10
111.336195
 20
162.817658
 30
0.0
 10
111.425794
 20
162.680141
 30
0.0
 10
111.496083
 20
162.511721
 30
0.0
 10
111.547062
 20
162.312399
 30
0.0
  0
SPLINE
  5
234
100
AcDbEntity
  8
Layer_1
 62
7
100
AcDbSpline
 70
8
 71
3
 72
8
 73
4
 74
0
 40
0
 40
0
 40
0
 40
0
 40
1
 40
1
 40
1
 40
1
 10
111.547062
 20
162.312399
 30
0.0
 10
111.598041
 20
162.114622
 30
0.0
 10
111.623530
 20
161.847314
 30
0.0
 10
111.623530
 20
161.510475
 30
0.0
  0
SPLINE
  5
235
100
AcDbEntity
  8
Layer_1
 62
7
100
AcDbSpline
 70
8
 71
3
 72
8
 73
4
 74
0
 40
0
 40
0
 40
0
 40
0
 40
1
 40
1
 40
1
 40
1
 10
111.623530
 20
161.510475
 30
0.0
 10
111.623530
 20
161.111831
 30
0.0
 10
111.582593
 20
160.789670
 30
0.0
 10
111.500717
 20
160.543994
 30
0.0
  0
SPLINE
  5
236
100
AcDbEntity
  8
Layer_1
 62
7
100
AcDbSpline
 70
8
 71
3
 72
8
 73
4
 74
0
 40
0
 40
0
 40
0
 40
0
 40
1
 40
1
 40
1
 40
1
 10
111.500717
 20
160.543994
 30
0.0
 10
111.418842
 20
160.299863
 30
0.0
 10
111.296030
 20
160.110584
 30
0.0
 10
111.132280
 20
159.976158
 30
0.0
  0
SPLINE
  5
237
100
AcDbEntity
  8
Layer_1
 62
7
100
AcDbSpline
 70
8
 71
3
 72
8
 73
4
 74
0
 40
0
 40
0
 40
0
 40
0
 40
1
 40
1
 40
1
 40
1
 10
111.132280
 20
159.976158
 30
0.0
 10
110.970074
 20
159.843276
 30
0.0
 10
110.764614
 20
159.776835
 30
0.0
 10
110.515899
 20
159.776835
 30
0.0
  0
SPLINE
  5
238
100
AcDbEntity
  8
Layer_1
 62
7
100
AcDbSpline
 70
8
 71
3
 72
8
 73
4
 74
0
 40
0
 40
0
 40
0
 40
0
 40
1
 40
1
 40
1
 40
1
 10
110.515899
 20
159.776835
 30
0.0
 10
110.188398
 20
159.776835
 30
0.0
 10
109.931187
 20
159.894265
 30
0.0
 10
109.744264
 20
160.129126
 30
0.0
  0
SPLINE
  5
239
100
AcDbEntity
  8
Layer_1
 62
7
100
AcDbSpline
 70
8
 71
3
 72
8
 73
4
 74
0
 40
0
 40
0
 40
0
 40
0
 40
1
 40
1
 40
1
 40
1
 10
109.744264
 20
160.129126
 30
0.0
 10
109.520266
 20
160.411885
 30
0.0
 10
109.408267
 20
160.872335
 30
0.0
 10
109.408267
 20
161.510475
 30
0.0
  0
LWPOLYLINE
  5
23a
100
AcDbEntity
  8
Layer_1
 62
7
100
AcDbPolyline
 90
1
 70
1
 10
107.227763
 20
160.935685
 30
0.0
  0
SPLINE
  5
23b
100
AcDbEntity
  8
Layer_1
 62
7
100
AcDbSpline
 70
8
 71
3
 72
8
 73
4
 74
0
 40
0
 40
0
 40
0
 40
0
 40
1
 40
1
 40
1
 40
1
 10
109.836954
 20
161.510475
 30
0.0
 10
109.836954
 20
160.952682
 30
0.0
 10
109.901836
 20
160.581077
 30
0.0
 10
110.031600
 20
160.395661
 30
0.0
  0
SPLINE
  5
23c
100
AcDbEntity
  8
Layer_1
 62
7
100
AcDbSpline
 70
8
 71
3
 72
8
 73
4
 74
0
 40
0
 40
0
 40
0
 40
0
 40
1
 40
1
 40
1
 40
1
 10
110.031600
 20
160.395661
 30
0.0
 10
110.162909
 20
160.211790
 30
0.0
 10
110.324342
 20
160.119855
 30
0.0
 10
110.515899
 20
160.119855
 30
0.0
  0
SPLINE
  5
23d
100
AcDbEntity
  8
Layer_1
 62
7
100
AcDbSpline
 70
8
 71
3
 72
8
 73
4
 74
0
 40
0
 40
0
 40
0
 40
0
 40
1
 40
1
 40
1
 40
1
 10
110.515899
 20
160.119855
 30
0.0
 10
110.707456
 20
160.119855
 30
0.0
 10
110.868116
 20
160.212563
 30
0.0
 10
110.997880
 20
160.397979
 30
0.0
  0
SPLINE
  5
23e
100
AcDbEntity
  8
Layer_1
 62
7
100
AcDbSpline
 70
8
 71
3
 72
8
 73
4
 74
0
 40
0
 40
0
 40
0
 40
0
 40
1
 40
1
 40
1
 40
1
 10
110.997880
 20
160.397979
 30
0.0
 10
111.129190
 20
160.583395
 30
0.0
 10
111.194845
 20
160.954227
 30
0.0
 10
111.194845
 20
161.510475
 30
0.0
  0
SPLINE
  5
23f
100
AcDbEntity
  8
Layer_1
 62
7
100
AcDbSpline
 70
8
 71
3
 72
8
 73
4
 74
0
 40
0
 40
0
 40
0
 40
0
 40
1
 40
1
 40
1
 40
1
 10
111.194845
 20
161.510475
 30
0.0
 10
111.194845
 20
162.069813
 30
0.0
 10
111.129190
 20
162.441418
 30
0.0
 10
110.997880
 20
162.625289
 30
0.0
  0
SPLINE
  5
240
100
AcDbEntity
  8
Layer_1
 62
7
100
AcDbSpline
 70
8
 71
3
 72
8
 73
4
 74
0
 40
0
 40
0
 40
0
 40
0
 40
1
 40
1
 40
1
 40
1
 10
110.997880
 20
162.625289
 30
0.0
 10
110.868116
 20
162.809159
 30
0.0
 10
110.705911
 20
162.901095
 30
0.0
 10
110.511264
 20
162.901095
 30
0.0
  0
SPLINE
  5
241
100
AcDbEntity
  8
Layer_1
 62
7
100
AcDbSpline
 70
8
 71
3
 72
8
 73
4
 74
0
 40
0
 40
0
 40
0
 40
0
 40
1
 40
1
 40
1
 40
1
 10
110.511264
 20
162.901095
 30
0.0
 10
110.319708
 20
162.901095
 30
0.0
 10
110.166771
 20
162.819975
 30
0.0
 10
110.052455
 20
162.657736
 30
0.0
  0
SPLINE
  5
242
100
AcDbEntity
  8
Layer_1
 62
7
100
AcDbSpline
 70
8
 71
3
 72
8
 73
4
 74
0
 40
0
 40
0
 40
0
 40
0
 40
1
 40
1
 40
1
 40
1
 10
110.052455
 20
162.657736
 30
0.0
 10
109.908787
 20
162.450688
 30
0.0
 10
109.836954
 20
162.068268
 30
0.0
 10
109.836954
 20
161.510475
 30
0.0
  0
LWPOLYLINE
  5
243
100
AcDbEntity
  8
Layer_1
 62
7
100
AcDbPolyline
 90
1
 70
1
 10
109.408267
 20
161.510475
 30
0.0
  0
LWPOLYLINE
  5
244
100
AcDbEntity
  8
Layer_1
 62
7
100
AcDbPolyline
 90
1
 70
1
 10
109.836954
 20
161.510475
 30
0.0
  0
LWPOLYLINE
  5
245
100
AcDbEntity
  8
Layer_1
 62
7
100
AcDbPolyline
 90
11
 70
1
 10
108.103673
 20
144.265769
 30
0.0
 10
108.103673
 20
145.079282
 30
0.0
 10
106.629921
 20
145.079282
 30
0.0
 10
106.629921
 20
145.461702
 30
0.0
 10
108.180141
 20
147.663517
 30
0.0
 10
108.520772
 20
147.663517
 30
0.0
 10
108.520772
 20
145.461702
 30
0.0
 10
108.979582
 20
145.461702
 30
0.0
 10
108.979582
 20
145.079282
 30
0.0
 10
108.520772
 20
145.079282
 30
0.0
 10
108.520772
 20
144.265769
 30
0.0
  0
LWPOLYLINE
  5
246
100
AcDbEntity
  8
Layer_1
 62
7
100
AcDbPolyline
 90
3
 70
1
 10
108.103673
 20
145.461702
 30
0.0
 10
108.103673
 20
146.993702
 30
0.0
 10
107.040069
 20
145.461702
 30
0.0
  0
SPLINE
  5
247
100
AcDbEntity
  8
Layer_1
 62
7
100
AcDbSpline
 70
8
 71
3
 72
8
 73
4
 74
0
 40
0
 40
0
 40
0
 40
0
 40
1
 40
1
 40
1
 40
1
 10
109.846222
 20
145.192849
 30
0.0
 10
109.878663
 20
144.979621
 30
0.0
 10
109.953587
 20
144.818927
 30
0.0
 10
110.070993
 20
144.710768
 30
0.0
  0
SPLINE
  5
248
100
AcDbEntity
  8
Layer_1
 62
7
100
AcDbSpline
 70
8
 71
3
 72
8
 73
4
 74
0
 40
0
 40
0
 40
0
 40
0
 40
1
 40
1
 40
1
 40
1
 10
110.070993
 20
144.710768
 30
0.0
 10
110.189943
 20
144.604153
 30
0.0
 10
110.332838
 20
144.550846
 30
0.0
 10
110.499678
 20
144.550846
 30
0.0
  0
SPLINE
  5
249
100
AcDbEntity
  8
Layer_1
 62
7
100
AcDbSpline
 70
8
 71
3
 72
8
 73
4
 74
0
 40
0
 40
0
 40
0
 40
0
 40
1
 40
1
 40
1
 40
1
 10
110.499678
 20
144.550846
 30
0.0
 10
110.700504
 20
144.550846
 30
0.0
 10
110.870434
 20
144.626558
 30
0.0
 10
111.009467
 20
144.777981
 30
0.0
  0
SPLINE
  5
24a
100
AcDbEntity
  8
Layer_1
 62
7
100
AcDbSpline
 70
8
 71
3
 72
8
 73
4
 74
0
 40
0
 40
0
 40
0
 40
0
 40
1
 40
1
 40
1
 40
1
 10
111.009467
 20
144.777981
 30
0.0
 10
111.148500
 20
144.929404
 30
0.0
 10
111.218017
 20
145.130272
 30
0.0
 10
111.218017
 20
145.380583
 30
0.0
  0
SPLINE
  5
24b
100
AcDbEntity
  8
Layer_1
 62
7
100
AcDbSpline
 70
8
 71
3
 72
8
 73
4
 74
0
 40
0
 40
0
 40
0
 40
0
 40
1
 40
1
 40
1
 40
1
 10
111.218017
 20
145.380583
 30
0.0
 10
111.218017
 20
145.618533
 30
0.0
 10
111.150817
 20
145.806267
 30
0.0
 10
111.016418
 20
145.943784
 30
0.0
  0
SPLINE
  5
24c
100
AcDbEntity
  8
Layer_1
 62
7
100
AcDbSpline
 70
8
 71
3
 72
8
 73
4
 74
0
 40
0
 40
0
 40
0
 40
0
 40
1
 40
1
 40
1
 40
1
 10
111.016418
 20
145.943784
 30
0.0
 10
110.883564
 20
146.081301
 30
0.0
 10
110.709001
 20
146.150059
 30
0.0
 10
110.492726
 20
146.150059
 30
0.0
  0
SPLINE
  5
24d
100
AcDbEntity
  8
Layer_1
 62
7
100
AcDbSpline
 70
8
 71
3
 72
8
 73
4
 74
0
 40
0
 40
0
 40
0
 40
0
 40
1
 40
1
 40
1
 40
1
 10
110.492726
 20
146.150059
 30
0.0
 10
110.358328
 20
146.150059
 30
0.0
 10
110.237060
 20
146.119157
 30
0.0
 10
110.128923
 20
146.057352
 30
0.0
  0
SPLINE
  5
24e
100
AcDbEntity
  8
Layer_1
 62
7
100
AcDbSpline
 70
8
 71
3
 72
8
 73
4
 74
0
 40
0
 40
0
 40
0
 40
0
 40
1
 40
1
 40
1
 40
1
 10
110.128923
 20
146.057352
 30
0.0
 10
110.020786
 20
145.997091
 30
0.0
 10
109.935821
 20
145.918289
 30
0.0
 10
109.874029
 20
145.820946
 30
0.0
  0
LWPOLYLINE
  5
24f
100
AcDbEntity
  8
Layer_1
 62
7
100
AcDbPolyline
 90
2
 70
0
 10
109.408267
 20
145.155766
 30
0.0
 10
109.846222
 20
145.192849
 30
0.0
  0
SPLINE
  5
250
100
AcDbEntity
  8
Layer_1
 62
7
100
AcDbSpline
 70
8
 71
3
 72
8
 73
4
 74
0
 40
0
 40
0
 40
0
 40
0
 40
1
 40
1
 40
1
 40
1
 10
109.962083
 20
146.305345
 30
0.0
 10
110.165999
 20
146.447497
 30
0.0
 10
110.379955
 20
146.518573
 30
0.0
 10
110.603953
 20
146.518573
 30
0.0
  0
SPLINE
  5
251
100
AcDbEntity
  8
Layer_1
 62
7
100
AcDbSpline
 70
8
 71
3
 72
8
 73
4
 74
0
 40
0
 40
0
 40
0
 40
0
 40
1
 40
1
 40
1
 40
1
 10
110.603953
 20
146.518573
 30
0.0
 10
110.900558
 20
146.518573
 30
0.0
 10
111.150817
 20
146.415822
 30
0.0
 10
111.354732
 20
146.210320
 30
0.0
  0
SPLINE
  5
252
100
AcDbEntity
  8
Layer_1
 62
7
100
AcDbSpline
 70
8
 71
3
 72
8
 73
4
 74
0
 40
0
 40
0
 40
0
 40
0
 40
1
 40
1
 40
1
 40
1
 10
111.354732
 20
146.210320
 30
0.0
 10
111.558648
 20
146.004817
 30
0.0
 10
111.660606
 20
145.740599
 30
0.0
 10
111.660606
 20
145.417666
 30
0.0
  0
SPLINE
  5
253
100
AcDbEntity
  8
Layer_1
 62
7
100
AcDbSpline
 70
8
 71
3
 72
8
 73
4
 74
0
 40
0
 40
0
 40
0
 40
0
 40
1
 40
1
 40
1
 40
1
 10
111.660606
 20
145.417666
 30
0.0
 10
111.660606
 20
145.110185
 30
0.0
 10
111.571007
 20
144.844422
 30
0.0
 10
111.391808
 20
144.620378
 30
0.0
  0
SPLINE
  5
254
100
AcDbEntity
  8
Layer_1
 62
7
100
AcDbSpline
 70
8
 71
3
 72
8
 73
4
 74
0
 40
0
 40
0
 40
0
 40
0
 40
1
 40
1
 40
1
 40
1
 10
111.391808
 20
144.620378
 30
0.0
 10
111.173990
 20
144.345344
 30
0.0
 10
110.876613
 20
144.207827
 30
0.0
 10
110.499678
 20
144.207827
 30
0.0
  0
SPLINE
  5
255
100
AcDbEntity
  8
Layer_1
 62
7
100
AcDbSpline
 70
8
 71
3
 72
8
 73
4
 74
0
 40
0
 40
0
 40
0
 40
0
 40
1
 40
1
 40
1
 40
1
 10
110.499678
 20
144.207827
 30
0.0
 10
110.190716
 20
144.207827
 30
0.0
 10
109.938139
 20
144.294354
 30
0.0
 10
109.741947
 20
144.467410
 30
0.0
  0
SPLINE
  5
256
100
AcDbEntity
  8
Layer_1
 62
7
100
AcDbSpline
 70
8
 71
3
 72
8
 73
4
 74
0
 40
0
 40
0
 40
0
 40
0
 40
1
 40
1
 40
1
 40
1
 10
109.741947
 20
144.467410
 30
0.0
 10
109.547301
 20
144.640464
 30
0.0
 10
109.436074
 20
144.869917
 30
0.0
 10
109.408267
 20
145.155766
 30
0.0
  0
LWPOLYLINE
  5
257
100
AcDbEntity
  8
Layer_1
 62
7
100
AcDbPolyline
 90
7
 70
0
 10
109.874029
 20
145.820946
 30
0.0
 10
109.482419
 20
145.871935
 30
0.0
 10
109.811464
 20
147.617163
 30
0.0
 10
111.500717
 20
147.617163
 30
0.0
 10
111.500717
 20
147.218519
 30
0.0
 10
110.145144
 20
147.218519
 30
0.0
 10
109.962083
 20
146.305345
 30
0.0
  0
LWPOLYLINE
  5
258
100
AcDbEntity
  8
Layer_1
 62
7
100
AcDbPolyline
 90
1
 70
1
 10
109.408267
 20
145.155766
 30
0.0
  0
SPLINE
  5
259
100
AcDbEntity
  8
Layer_1
 62
7
100
AcDbSpline
 70
8
 71
3
 72
8
 73
4
 74
0
 40
0
 40
0
 40
0
 40
0
 40
1
 40
1
 40
1
 40
1
 10
107.186054
 20
129.261375
 30
0.0
 10
107.233943
 20
129.024970
 30
0.0
 10
107.315046
 20
128.854233
 30
0.0
 10
107.429362
 20
128.749164
 30
0.0
  0
SPLINE
  5
25a
100
AcDbEntity
  8
Layer_1
 62
7
100
AcDbSpline
 70
8
 71
3
 72
8
 73
4
 74
0
 40
0
 40
0
 40
0
 40
0
 40
1
 40
1
 40
1
 40
1
 10
107.429362
 20
128.749164
 30
0.0
 10
107.545223
 20
128.645640
 30
0.0
 10
107.685801
 20
128.593878
 30
0.0
 10
107.851096
 20
128.593878
 30
0.0
  0
SPLINE
  5
25b
100
AcDbEntity
  8
Layer_1
 62
7
100
AcDbSpline
 70
8
 71
3
 72
8
 73
4
 74
0
 40
0
 40
0
 40
0
 40
0
 40
1
 40
1
 40
1
 40
1
 10
107.851096
 20
128.593878
 30
0.0
 10
108.047287
 20
128.593878
 30
0.0
 10
108.212582
 20
128.661864
 30
0.0
 10
108.346981
 20
128.797836
 30
0.0
  0
SPLINE
  5
25c
100
AcDbEntity
  8
Layer_1
 62
7
100
AcDbSpline
 70
8
 71
3
 72
8
 73
4
 74
0
 40
0
 40
0
 40
0
 40
0
 40
1
 40
1
 40
1
 40
1
 10
108.346981
 20
128.797836
 30
0.0
 10
108.482925
 20
128.933808
 30
0.0
 10
108.550897
 20
129.102227
 30
0.0
 10
108.550897
 20
129.303094
 30
0.0
  0
SPLINE
  5
25d
100
AcDbEntity
  8
Layer_1
 62
7
100
AcDbSpline
 70
8
 71
3
 72
8
 73
4
 74
0
 40
0
 40
0
 40
0
 40
0
 40
1
 40
1
 40
1
 40
1
 10
108.550897
 20
129.303094
 30
0.0
 10
108.550897
 20
129.494691
 30
0.0
 10
108.488332
 20
129.652294
 30
0.0
 10
108.363202
 20
129.775905
 30
0.0
  0
SPLINE
  5
25e
100
AcDbEntity
  8
Layer_1
 62
7
100
AcDbSpline
 70
8
 71
3
 72
8
 73
4
 74
0
 40
0
 40
0
 40
0
 40
0
 40
1
 40
1
 40
1
 40
1
 10
108.363202
 20
129.775905
 30
0.0
 10
108.238072
 20
129.901061
 30
0.0
 10
108.078956
 20
129.963639
 30
0.0
 10
107.885854
 20
129.963639
 30
0.0
  0
SPLINE
  5
25f
100
AcDbEntity
  8
Layer_1
 62
7
100
AcDbSpline
 70
8
 71
3
 72
8
 73
4
 74
0
 40
0
 40
0
 40
0
 40
0
 40
1
 40
1
 40
1
 40
1
 10
107.885854
 20
129.963639
 30
0.0
 10
107.807069
 20
129.963639
 30
0.0
 10
107.708973
 20
129.948187
 30
0.0
 10
107.591567
 20
129.917284
 30
0.0
  0
LWPOLYLINE
  5
260
100
AcDbEntity
  8
Layer_1
 62
7
100
AcDbPolyline
 90
2
 70
0
 10
106.768954
 20
129.205751
 30
0.0
 10
107.186054
 20
129.261375
 30
0.0
  0
SPLINE
  5
261
100
AcDbEntity
  8
Layer_1
 62
7
100
AcDbSpline
 70
8
 71
3
 72
8
 73
4
 74
0
 40
0
 40
0
 40
0
 40
0
 40
1
 40
1
 40
1
 40
1
 10
107.637912
 20
130.283481
 30
0.0
 10
107.665718
 20
130.280389
 30
0.0
 10
107.688118
 20
130.278842
 30
0.0
 10
107.705112
 20
130.278842
 30
0.0
  0
SPLINE
  5
262
100
AcDbEntity
  8
Layer_1
 62
7
100
AcDbSpline
 70
8
 71
3
 72
8
 73
4
 74
0
 40
0
 40
0
 40
0
 40
0
 40
1
 40
1
 40
1
 40
1
 10
107.705112
 20
130.278842
 30
0.0
 10
107.882765
 20
130.278842
 30
0.0
 10
108.042653
 20
130.325197
 30
0.0
 10
108.184776
 20
130.417905
 30
0.0
  0
SPLINE
  5
263
100
AcDbEntity
  8
Layer_1
 62
7
100
AcDbSpline
 70
8
 71
3
 72
8
 73
4
 74
0
 40
0
 40
0
 40
0
 40
0
 40
1
 40
1
 40
1
 40
1
 10
108.184776
 20
130.417905
 30
0.0
 10
108.326898
 20
130.510613
 30
0.0
 10
108.397960
 20
130.653538
 30
0.0
 10
108.397960
 20
130.846679
 30
0.0
  0
SPLINE
  5
264
100
AcDbEntity
  8
Layer_1
 62
7
100
AcDbSpline
 70
8
 71
3
 72
8
 73
4
 74
0
 40
0
 40
0
 40
0
 40
0
 40
1
 40
1
 40
1
 40
1
 10
108.397960
 20
130.846679
 30
0.0
 10
108.397960
 20
130.999647
 30
0.0
 10
108.346209
 20
131.126348
 30
0.0
 10
108.242706
 20
131.226782
 30
0.0
  0
SPLINE
  5
265
100
AcDbEntity
  8
Layer_1
 62
7
100
AcDbSpline
 70
8
 71
3
 72
8
 73
4
 74
0
 40
0
 40
0
 40
0
 40
0
 40
1
 40
1
 40
1
 40
1
 10
108.242706
 20
131.226782
 30
0.0
 10
108.139204
 20
131.327215
 30
0.0
 10
108.005578
 20
131.377432
 30
0.0
 10
107.841827
 20
131.377432
 30
0.0
  0
SPLINE
  5
266
100
AcDbEntity
  8
Layer_1
 62
7
100
AcDbSpline
 70
8
 71
3
 72
8
 73
4
 74
0
 40
0
 40
0
 40
0
 40
0
 40
1
 40
1
 40
1
 40
1
 10
107.841827
 20
131.377432
 30
0.0
 10
107.679622
 20
131.377432
 30
0.0
 10
107.544451
 20
131.326443
 30
0.0
 10
107.436314
 20
131.224464
 30
0.0
  0
SPLINE
  5
267
100
AcDbEntity
  8
Layer_1
 62
7
100
AcDbSpline
 70
8
 71
3
 72
8
 73
4
 74
0
 40
0
 40
0
 40
0
 40
0
 40
1
 40
1
 40
1
 40
1
 10
107.436314
 20
131.224464
 30
0.0
 10
107.328177
 20
131.122485
 30
0.0
 10
107.258660
 20
130.969517
 30
0.0
 10
107.227764
 20
130.765559
 30
0.0
  0
LWPOLYLINE
  5
268
100
AcDbEntity
  8
Layer_1
 62
7
100
AcDbPolyline
 90
2
 70
0
 10
107.591567
 20
129.917284
 30
0.0
 10
107.637912
 20
130.283481
 30
0.0
  0
SPLINE
  5
269
100
AcDbEntity
  8
Layer_1
 62
7
100
AcDbSpline
 70
8
 71
3
 72
8
 73
4
 74
0
 40
0
 40
0
 40
0
 40
0
 40
1
 40
1
 40
1
 40
1
 10
106.810664
 20
130.839726
 30
0.0
 10
106.861643
 20
131.119395
 30
0.0
 10
106.977504
 20
131.335714
 30
0.0
 10
107.158247
 20
131.488682
 30
0.0
  0
SPLINE
  5
26a
100
AcDbEntity
  8
Layer_1
 62
7
100
AcDbSpline
 70
8
 71
3
 72
8
 73
4
 74
0
 40
0
 40
0
 40
0
 40
0
 40
1
 40
1
 40
1
 40
1
 10
107.158247
 20
131.488682
 30
0.0
 10
107.338991
 20
131.643196
 30
0.0
 10
107.563761
 20
131.720452
 30
0.0
 10
107.832559
 20
131.720452
 30
0.0
  0
SPLINE
  5
26b
100
AcDbEntity
  8
Layer_1
 62
7
100
AcDbSpline
 70
8
 71
3
 72
8
 73
4
 74
0
 40
0
 40
0
 40
0
 40
0
 40
1
 40
1
 40
1
 40
1
 10
107.832559
 20
131.720452
 30
0.0
 10
108.017936
 20
131.720452
 30
0.0
 10
108.188638
 20
131.680279
 30
0.0
 10
108.344664
 20
131.599932
 30
0.0
  0
SPLINE
  5
26c
100
AcDbEntity
  8
Layer_1
 62
7
100
AcDbSpline
 70
8
 71
3
 72
8
 73
4
 74
0
 40
0
 40
0
 40
0
 40
0
 40
1
 40
1
 40
1
 40
1
 10
108.344664
 20
131.599932
 30
0.0
 10
108.500690
 20
131.521130
 30
0.0
 10
108.619641
 20
131.412970
 30
0.0
 10
108.701516
 20
131.275454
 30
0.0
  0
SPLINE
  5
26d
100
AcDbEntity
  8
Layer_1
 62
7
100
AcDbSpline
 70
8
 71
3
 72
8
 73
4
 74
0
 40
0
 40
0
 40
0
 40
0
 40
1
 40
1
 40
1
 40
1
 10
108.701516
 20
131.275454
 30
0.0
 10
108.784936
 20
131.137937
 30
0.0
 10
108.826646
 20
130.991922
 30
0.0
 10
108.826646
 20
130.837408
 30
0.0
  0
SPLINE
  5
26e
100
AcDbEntity
  8
Layer_1
 62
7
100
AcDbSpline
 70
8
 71
3
 72
8
 73
4
 74
0
 40
0
 40
0
 40
0
 40
0
 40
1
 40
1
 40
1
 40
1
 10
108.826646
 20
130.837408
 30
0.0
 10
108.826646
 20
130.690621
 30
0.0
 10
108.787253
 20
130.556967
 30
0.0
 10
108.708468
 20
130.436446
 30
0.0
  0
SPLINE
  5
26f
100
AcDbEntity
  8
Layer_1
 62
7
100
AcDbSpline
 70
8
 71
3
 72
8
 73
4
 74
0
 40
0
 40
0
 40
0
 40
0
 40
1
 40
1
 40
1
 40
1
 10
108.708468
 20
130.436446
 30
0.0
 10
108.629682
 20
130.315926
 30
0.0
 10
108.513048
 20
130.220127
 30
0.0
 10
108.358567
 20
130.149051
 30
0.0
  0
SPLINE
  5
270
100
AcDbEntity
  8
Layer_1
 62
7
100
AcDbSpline
 70
8
 71
3
 72
8
 73
4
 74
0
 40
0
 40
0
 40
0
 40
0
 40
1
 40
1
 40
1
 40
1
 10
108.358567
 20
130.149051
 30
0.0
 10
108.559393
 20
130.102697
 30
0.0
 10
108.715419
 20
130.006127
 30
0.0
 10
108.826646
 20
129.859339
 30
0.0
  0
SPLINE
  5
271
100
AcDbEntity
  8
Layer_1
 62
7
100
AcDbSpline
 70
8
 71
3
 72
8
 73
4
 74
0
 40
0
 40
0
 40
0
 40
0
 40
1
 40
1
 40
1
 40
1
 10
108.826646
 20
129.859339
 30
0.0
 10
108.937872
 20
129.714096
 30
0.0
 10
108.993485
 20
129.531771
 30
0.0
 10
108.993485
 20
129.312362
 30
0.0
  0
SPLINE
  5
272
100
AcDbEntity
  8
Layer_1
 62
7
100
AcDbSpline
 70
8
 71
3
 72
8
 73
4
 74
0
 40
0
 40
0
 40
0
 40
0
 40
1
 40
1
 40
1
 40
1
 10
108.993485
 20
129.312362
 30
0.0
 10
108.993485
 20
129.015696
 30
0.0
 10
108.885349
 20
128.763840
 30
0.0
 10
108.669075
 20
128.556792
 30
0.0
  0
SPLINE
  5
273
100
AcDbEntity
  8
Layer_1
 62
7
100
AcDbSpline
 70
8
 71
3
 72
8
 73
4
 74
0
 40
0
 40
0
 40
0
 40
0
 40
1
 40
1
 40
1
 40
1
 10
108.669075
 20
128.556792
 30
0.0
 10
108.452801
 20
128.351289
 30
0.0
 10
108.179369
 20
128.248538
 30
0.0
 10
107.848779
 20
128.248538
 30
0.0
  0
SPLINE
  5
274
100
AcDbEntity
  8
Layer_1
 62
7
100
AcDbSpline
 70
8
 71
3
 72
8
 73
4
 74
0
 40
0
 40
0
 40
0
 40
0
 40
1
 40
1
 40
1
 40
1
 10
107.848779
 20
128.248538
 30
0.0
 10
107.550630
 20
128.248538
 30
0.0
 10
107.302687
 20
128.337383
 30
0.0
 10
107.104951
 20
128.515073
 30
0.0
  0
SPLINE
  5
275
100
AcDbEntity
  8
Layer_1
 62
7
100
AcDbSpline
 70
8
 71
3
 72
8
 73
4
 74
0
 40
0
 40
0
 40
0
 40
0
 40
1
 40
1
 40
1
 40
1
 10
107.104951
 20
128.515073
 30
0.0
 10
106.908760
 20
128.692764
 30
0.0
 10
106.796761
 20
128.922989
 30
0.0
 10
106.768954
 20
129.205748
 30
0.0
  0
LWPOLYLINE
  5
276
100
AcDbEntity
  8
Layer_1
 62
7
100
AcDbPolyline
 90
2
 70
0
 10
107.227764
 20
130.765559
 30
0.0
 10
106.810664
 20
130.839726
 30
0.0
  0
SPLINE
  5
277
100
AcDbEntity
  8
Layer_1
 62
7
100
AcDbSpline
 70
8
 71
3
 72
8
 73
4
 74
0
 40
0
 40
0
 40
0
 40
0
 40
1
 40
1
 40
1
 40
1
 10
109.408268
 20
129.984498
 30
0.0
 10
109.408268
 20
130.386233
 30
0.0
 10
109.449206
 20
130.709165
 30
0.0
 10
109.531081
 20
130.953296
 30
0.0
  0
SPLINE
  5
278
100
AcDbEntity
  8
Layer_1
 62
7
100
AcDbSpline
 70
8
 71
3
 72
8
 73
4
 74
0
 40
0
 40
0
 40
0
 40
0
 40
1
 40
1
 40
1
 40
1
 10
109.531081
 20
130.953296
 30
0.0
 10
109.614501
 20
131.198973
 30
0.0
 10
109.737313
 20
131.388252
 30
0.0
 10
109.899519
 20
131.521133
 30
0.0
  0
SPLINE
  5
279
100
AcDbEntity
  8
Layer_1
 62
7
100
AcDbSpline
 70
8
 71
3
 72
8
 73
4
 74
0
 40
0
 40
0
 40
0
 40
0
 40
1
 40
1
 40
1
 40
1
 10
109.899519
 20
131.521133
 30
0.0
 10
110.063269
 20
131.654015
 30
0.0
 10
110.268729
 20
131.720455
 30
0.0
 10
110.515899
 20
131.720455
 30
0.0
  0
SPLINE
  5
27a
100
AcDbEntity
  8
Layer_1
 62
7
100
AcDbSpline
 70
8
 71
3
 72
8
 73
4
 74
0
 40
0
 40
0
 40
0
 40
0
 40
1
 40
1
 40
1
 40
1
 10
110.515899
 20
131.720455
 30
0.0
 10
110.698187
 20
131.720455
 30
0.0
 10
110.858075
 20
131.683372
 30
0.0
 10
110.995564
 20
131.609205
 30
0.0
  0
SPLINE
  5
27b
100
AcDbEntity
  8
Layer_1
 62
7
100
AcDbSpline
 70
8
 71
3
 72
8
 73
4
 74
0
 40
0
 40
0
 40
0
 40
0
 40
1
 40
1
 40
1
 40
1
 10
110.995564
 20
131.609205
 30
0.0
 10
111.133052
 20
131.536584
 30
0.0
 10
111.246596
 20
131.430743
 30
0.0
 10
111.336195
 20
131.291680
 30
0.0
  0
SPLINE
  5
27c
100
AcDbEntity
  8
Layer_1
 62
7
100
AcDbSpline
 70
8
 71
3
 72
8
 73
4
 74
0
 40
0
 40
0
 40
0
 40
0
 40
1
 40
1
 40
1
 40
1
 10
111.336195
 20
131.291680
 30
0.0
 10
111.425794
 20
131.154164
 30
0.0
 10
111.496083
 20
130.985744
 30
0.0
 10
111.547062
 20
130.786422
 30
0.0
  0
SPLINE
  5
27d
100
AcDbEntity
  8
Layer_1
 62
7
100
AcDbSpline
 70
8
 71
3
 72
8
 73
4
 74
0
 40
0
 40
0
 40
0
 40
0
 40
1
 40
1
 40
1
 40
1
 10
111.547062
 20
130.786422
 30
0.0
 10
111.598041
 20
130.588645
 30
0.0
 10
111.623531
 20
130.321337
 30
0.0
 10
111.623531
 20
129.984498
 30
0.0
  0
SPLINE
  5
27e
100
AcDbEntity
  8
Layer_1
 62
7
100
AcDbSpline
 70
8
 71
3
 72
8
 73
4
 74
0
 40
0
 40
0
 40
0
 40
0
 40
1
 40
1
 40
1
 40
1
 10
111.623531
 20
129.984498
 30
0.0
 10
111.623531
 20
129.585854
 30
0.0
 10
111.582593
 20
129.263693
 30
0.0
 10
111.500718
 20
129.018017
 30
0.0
  0
SPLINE
  5
27f
100
AcDbEntity
  8
Layer_1
 62
7
100
AcDbSpline
 70
8
 71
3
 72
8
 73
4
 74
0
 40
0
 40
0
 40
0
 40
0
 40
1
 40
1
 40
1
 40
1
 10
111.500718
 20
129.018017
 30
0.0
 10
111.418843
 20
128.773886
 30
0.0
 10
111.296030
 20
128.584608
 30
0.0
 10
111.132280
 20
128.450181
 30
0.0
  0
SPLINE
  5
280
100
AcDbEntity
  8
Layer_1
 62
7
100
AcDbSpline
 70
8
 71
3
 72
8
 73
4
 74
0
 40
0
 40
0
 40
0
 40
0
 40
1
 40
1
 40
1
 40
1
 10
111.132280
 20
128.450181
 30
0.0
 10
110.970074
 20
128.317299
 30
0.0
 10
110.764614
 20
128.250859
 30
0.0
 10
110.515899
 20
128.250859
 30
0.0
  0
SPLINE
  5
281
100
AcDbEntity
  8
Layer_1
 62
7
100
AcDbSpline
 70
8
 71
3
 72
8
 73
4
 74
0
 40
0
 40
0
 40
0
 40
0
 40
1
 40
1
 40
1
 40
1
 10
110.515899
 20
128.250859
 30
0.0
 10
110.188399
 20
128.250859
 30
0.0
 10
109.931187
 20
128.368289
 30
0.0
 10
109.744265
 20
128.603149
 30
0.0
  0
SPLINE
  5
282
100
AcDbEntity
  8
Layer_1
 62
7
100
AcDbSpline
 70
8
 71
3
 72
8
 73
4
 74
0
 40
0
 40
0
 40
0
 40
0
 40
1
 40
1
 40
1
 40
1
 10
109.744265
 20
128.603149
 30
0.0
 10
109.520267
 20
128.885908
 30
0.0
 10
109.408268
 20
129.346358
 30
0.0
 10
109.408268
 20
129.984498
 30
0.0
  0
LWPOLYLINE
  5
283
100
AcDbEntity
  8
Layer_1
 62
7
100
AcDbPolyline
 90
1
 70
1
 10
106.768954
 20
129.205748
 30
0.0
  0
SPLINE
  5
284
100
AcDbEntity
  8
Layer_1
 62
7
100
AcDbSpline
 70
8
 71
3
 72
8
 73
4
 74
0
 40
0
 40
0
 40
0
 40
0
 40
1
 40
1
 40
1
 40
1
 10
109.836954
 20
129.984498
 30
0.0
 10
109.836954
 20
129.426705
 30
0.0
 10
109.901836
 20
129.055100
 30
0.0
 10
110.031600
 20
128.869684
 30
0.0
  0
SPLINE
  5
285
100
AcDbEntity
  8
Layer_1
 62
7
100
AcDbSpline
 70
8
 71
3
 72
8
 73
4
 74
0
 40
0
 40
0
 40
0
 40
0
 40
1
 40
1
 40
1
 40
1
 10
110.031600
 20
128.869684
 30
0.0
 10
110.162909
 20
128.685814
 30
0.0
 10
110.324342
 20
128.593878
 30
0.0
 10
110.515899
 20
128.593878
 30
0.0
  0
SPLINE
  5
286
100
AcDbEntity
  8
Layer_1
 62
7
100
AcDbSpline
 70
8
 71
3
 72
8
 73
4
 74
0
 40
0
 40
0
 40
0
 40
0
 40
1
 40
1
 40
1
 40
1
 10
110.515899
 20
128.593878
 30
0.0
 10
110.707456
 20
128.593878
 30
0.0
 10
110.868117
 20
128.686586
 30
0.0
 10
110.997881
 20
128.872002
 30
0.0
  0
SPLINE
  5
287
100
AcDbEntity
  8
Layer_1
 62
7
100
AcDbSpline
 70
8
 71
3
 72
8
 73
4
 74
0
 40
0
 40
0
 40
0
 40
0
 40
1
 40
1
 40
1
 40
1
 10
110.997881
 20
128.872002
 30
0.0
 10
111.129190
 20
129.057418
 30
0.0
 10
111.194845
 20
129.428250
 30
0.0
 10
111.194845
 20
129.984498
 30
0.0
  0
SPLINE
  5
288
100
AcDbEntity
  8
Layer_1
 62
7
100
AcDbSpline
 70
8
 71
3
 72
8
 73
4
 74
0
 40
0
 40
0
 40
0
 40
0
 40
1
 40
1
 40
1
 40
1
 10
111.194845
 20
129.984498
 30
0.0
 10
111.194845
 20
130.543836
 30
0.0
 10
111.129190
 20
130.915441
 30
0.0
 10
110.997881
 20
131.099311
 30
0.0
  0
SPLINE
  5
289
100
AcDbEntity
  8
Layer_1
 62
7
100
AcDbSpline
 70
8
 71
3
 72
8
 73
4
 74
0
 40
0
 40
0
 40
0
 40
0
 40
1
 40
1
 40
1
 40
1
 10
110.997881
 20
131.099311
 30
0.0
 10
110.868117
 20
131.283182
 30
0.0
 10
110.705911
 20
131.375118
 30
0.0
 10
110.511265
 20
131.375118
 30
0.0
  0
SPLINE
  5
28a
100
AcDbEntity
  8
Layer_1
 62
7
100
AcDbSpline
 70
8
 71
3
 72
8
 73
4
 74
0
 40
0
 40
0
 40
0
 40
0
 40
1
 40
1
 40
1
 40
1
 10
110.511265
 20
131.375118
 30
0.0
 10
110.319708
 20
131.375118
 30
0.0
 10
110.166771
 20
131.293998
 30
0.0
 10
110.052455
 20
131.131760
 30
0.0
  0
SPLINE
  5
28b
100
AcDbEntity
  8
Layer_1
 62
7
100
AcDbSpline
 70
8
 71
3
 72
8
 73
4
 74
0
 40
0
 40
0
 40
0
 40
0
 40
1
 40
1
 40
1
 40
1
 10
110.052455
 20
131.131760
 30
0.0
 10
109.908787
 20
130.924712
 30
0.0
 10
109.836954
 20
130.542291
 30
0.0
 10
109.836954
 20
129.984498
 30
0.0
  0
LWPOLYLINE
  5
28c
100
AcDbEntity
  8
Layer_1
 62
7
100
AcDbPolyline
 90
1
 70
1
 10
109.408268
 20
129.984498
 30
0.0
  0
LWPOLYLINE
  5
28d
100
AcDbEntity
  8
Layer_1
 62
7
100
AcDbPolyline
 90
1
 70
1
 10
109.836954
 20
129.984498
 30
0.0
  0
SPLINE
  5
28e
100
AcDbEntity
  8
Layer_1
 62
7
100
AcDbSpline
 70
8
 71
3
 72
8
 73
4
 74
0
 40
0
 40
0
 40
0
 40
0
 40
1
 40
1
 40
1
 40
1
 10
107.920612
 20
115.596288
 30
0.0
 10
107.820199
 20
115.500490
 30
0.0
 10
107.688118
 20
115.404692
 30
0.0
 10
107.524367
 20
115.308895
 30
0.0
  0
SPLINE
  5
28f
100
AcDbEntity
  8
Layer_1
 62
7
100
AcDbSpline
 70
8
 71
3
 72
8
 73
4
 74
0
 40
0
 40
0
 40
0
 40
0
 40
1
 40
1
 40
1
 40
1
 10
107.524367
 20
115.308895
 30
0.0
 10
107.362162
 20
115.213097
 30
0.0
 10
107.216178
 20
115.141247
 30
0.0
 10
107.086413
 20
115.093346
 30
0.0
  0
LWPOLYLINE
  5
290
100
AcDbEntity
  8
Layer_1
 62
7
100
AcDbPolyline
 90
3
 70
0
 10
108.337712
 20
112.937886
 30
0.0
 10
107.920612
 20
112.937886
 30
0.0
 10
107.920612
 20
115.596288
 30
0.0
  0
SPLINE
  5
291
100
AcDbEntity
  8
Layer_1
 62
7
100
AcDbSpline
 70
8
 71
3
 72
8
 73
4
 74
0
 40
0
 40
0
 40
0
 40
0
 40
1
 40
1
 40
1
 40
1
 10
107.086413
 20
115.496628
 30
0.0
 10
107.319680
 20
115.606332
 30
0.0
 10
107.523595
 20
115.739213
 30
0.0
 10
107.698159
 20
115.895270
 30
0.0
  0
SPLINE
  5
292
100
AcDbEntity
  8
Layer_1
 62
7
100
AcDbSpline
 70
8
 71
3
 72
8
 73
4
 74
0
 40
0
 40
0
 40
0
 40
0
 40
1
 40
1
 40
1
 40
1
 10
107.698159
 20
115.895270
 30
0.0
 10
107.872723
 20
116.051327
 30
0.0
 10
107.996308
 20
116.202750
 30
0.0
 10
108.068914
 20
116.349537
 30
0.0
  0
LWPOLYLINE
  5
293
100
AcDbEntity
  8
Layer_1
 62
7
100
AcDbPolyline
 90
2
 70
0
 10
107.086413
 20
115.093346
 30
0.0
 10
107.086413
 20
115.496628
 30
0.0
  0
LWPOLYLINE
  5
294
100
AcDbEntity
  8
Layer_1
 62
7
100
AcDbPolyline
 90
3
 70
0
 10
108.068914
 20
116.349537
 30
0.0
 10
108.337712
 20
116.349537
 30
0.0
 10
108.337712
 20
112.937886
 30
0.0
  0
SPLINE
  5
295
100
AcDbEntity
  8
Layer_1
 62
7
100
AcDbSpline
 70
8
 71
3
 72
8
 73
4
 74
0
 40
0
 40
0
 40
0
 40
0
 40
1
 40
1
 40
1
 40
1
 10
109.846222
 20
113.864964
 30
0.0
 10
109.878663
 20
113.651736
 30
0.0
 10
109.953587
 20
113.491042
 30
0.0
 10
110.070993
 20
113.382882
 30
0.0
  0
SPLINE
  5
296
100
AcDbEntity
  8
Layer_1
 62
7
100
AcDbSpline
 70
8
 71
3
 72
8
 73
4
 74
0
 40
0
 40
0
 40
0
 40
0
 40
1
 40
1
 40
1
 40
1
 10
110.070993
 20
113.382882
 30
0.0
 10
110.189943
 20
113.276270
 30
0.0
 10
110.332838
 20
113.222964
 30
0.0
 10
110.499678
 20
113.222964
 30
0.0
  0
SPLINE
  5
297
100
AcDbEntity
  8
Layer_1
 62
7
100
AcDbSpline
 70
8
 71
3
 72
8
 73
4
 74
0
 40
0
 40
0
 40
0
 40
0
 40
1
 40
1
 40
1
 40
1
 10
110.499678
 20
113.222964
 30
0.0
 10
110.700504
 20
113.222964
 30
0.0
 10
110.870434
 20
113.298676
 30
0.0
 10
111.009467
 20
113.450100
 30
0.0
  0
SPLINE
  5
298
100
AcDbEntity
  8
Layer_1
 62
7
100
AcDbSpline
 70
8
 71
3
 72
8
 73
4
 74
0
 40
0
 40
0
 40
0
 40
0
 40
1
 40
1
 40
1
 40
1
 10
111.009467
 20
113.450100
 30
0.0
 10
111.148500
 20
113.601521
 30
0.0
 10
111.218017
 20
113.802386
 30
0.0
 10
111.218017
 20
114.052697
 30
0.0
  0
SPLINE
  5
299
100
AcDbEntity
  8
Layer_1
 62
7
100
AcDbSpline
 70
8
 71
3
 72
8
 73
4
 74
0
 40
0
 40
0
 40
0
 40
0
 40
1
 40
1
 40
1
 40
1
 10
111.218017
 20
114.052697
 30
0.0
 10
111.218017
 20
114.290650
 30
0.0
 10
111.150817
 20
114.478385
 30
0.0
 10
111.016418
 20
114.615903
 30
0.0
  0
SPLINE
  5
29a
100
AcDbEntity
  8
Layer_1
 62
7
100
AcDbSpline
 70
8
 71
3
 72
8
 73
4
 74
0
 40
0
 40
0
 40
0
 40
0
 40
1
 40
1
 40
1
 40
1
 10
111.016418
 20
114.615903
 30
0.0
 10
110.883564
 20
114.753416
 30
0.0
 10
110.709001
 20
114.822173
 30
0.0
 10
110.492726
 20
114.822173
 30
0.0
  0
SPLINE
  5
29b
100
AcDbEntity
  8
Layer_1
 62
7
100
AcDbSpline
 70
8
 71
3
 72
8
 73
4
 74
0
 40
0
 40
0
 40
0
 40
0
 40
1
 40
1
 40
1
 40
1
 10
110.492726
 20
114.822173
 30
0.0
 10
110.358328
 20
114.822173
 30
0.0
 10
110.237060
 20
114.791271
 30
0.0
 10
110.128923
 20
114.729468
 30
0.0
  0
SPLINE
  5
29c
100
AcDbEntity
  8
Layer_1
 62
7
100
AcDbSpline
 70
8
 71
3
 72
8
 73
4
 74
0
 40
0
 40
0
 40
0
 40
0
 40
1
 40
1
 40
1
 40
1
 10
110.128923
 20
114.729468
 30
0.0
 10
110.020786
 20
114.669209
 30
0.0
 10
109.935821
 20
114.590408
 30
0.0
 10
109.874029
 20
114.493066
 30
0.0
  0
LWPOLYLINE
  5
29d
100
AcDbEntity
  8
Layer_1
 62
7
100
AcDbPolyline
 90
2
 70
0
 10
109.408267
 20
113.827883
 30
0.0
 10
109.846222
 20
113.864964
 30
0.0
  0
SPLINE
  5
29e
100
AcDbEntity
  8
Layer_1
 62
7
100
AcDbSpline
 70
8
 71
3
 72
8
 73
4
 74
0
 40
0
 40
0
 40
0
 40
0
 40
1
 40
1
 40
1
 40
1
 10
109.962083
 20
114.977465
 30
0.0
 10
110.165999
 20
115.119615
 30
0.0
 10
110.379955
 20
115.190690
 30
0.0
 10
110.603953
 20
115.190690
 30
0.0
  0
SPLINE
  5
29f
100
AcDbEntity
  8
Layer_1
 62
7
100
AcDbSpline
 70
8
 71
3
 72
8
 73
4
 74
0
 40
0
 40
0
 40
0
 40
0
 40
1
 40
1
 40
1
 40
1
 10
110.603953
 20
115.190690
 30
0.0
 10
110.900558
 20
115.190690
 30
0.0
 10
111.150817
 20
115.087939
 30
0.0
 10
111.354732
 20
114.882437
 30
0.0
  0
SPLINE
  5
2a0
100
AcDbEntity
  8
Layer_1
 62
7
100
AcDbSpline
 70
8
 71
3
 72
8
 73
4
 74
0
 40
0
 40
0
 40
0
 40
0
 40
1
 40
1
 40
1
 40
1
 10
111.354732
 20
114.882437
 30
0.0
 10
111.558648
 20
114.676934
 30
0.0
 10
111.660606
 20
114.412717
 30
0.0
 10
111.660606
 20
114.089784
 30
0.0
  0
SPLINE
  5
2a1
100
AcDbEntity
  8
Layer_1
 62
7
100
AcDbSpline
 70
8
 71
3
 72
8
 73
4
 74
0
 40
0
 40
0
 40
0
 40
0
 40
1
 40
1
 40
1
 40
1
 10
111.660606
 20
114.089784
 30
0.0
 10
111.660606
 20
113.782303
 30
0.0
 10
111.571007
 20
113.516539
 30
0.0
 10
111.391808
 20
113.292493
 30
0.0
  0
SPLINE
  5
2a2
100
AcDbEntity
  8
Layer_1
 62
7
100
AcDbSpline
 70
8
 71
3
 72
8
 73
4
 74
0
 40
0
 40
0
 40
0
 40
0
 40
1
 40
1
 40
1
 40
1
 10
111.391808
 20
113.292493
 30
0.0
 10
111.173990
 20
113.017461
 30
0.0
 10
110.876613
 20
112.879946
 30
0.0
 10
110.499678
 20
112.879946
 30
0.0
  0
SPLINE
  5
2a3
100
AcDbEntity
  8
Layer_1
 62
7
100
AcDbSpline
 70
8
 71
3
 72
8
 73
4
 74
0
 40
0
 40
0
 40
0
 40
0
 40
1
 40
1
 40
1
 40
1
 10
110.499678
 20
112.879946
 30
0.0
 10
110.190716
 20
112.879946
 30
0.0
 10
109.938139
 20
112.966472
 30
0.0
 10
109.741947
 20
113.139524
 30
0.0
  0
SPLINE
  5
2a4
100
AcDbEntity
  8
Layer_1
 62
7
100
AcDbSpline
 70
8
 71
3
 72
8
 73
4
 74
0
 40
0
 40
0
 40
0
 40
0
 40
1
 40
1
 40
1
 40
1
 10
109.741947
 20
113.139524
 30
0.0
 10
109.547301
 20
113.312581
 30
0.0
 10
109.436074
 20
113.542034
 30
0.0
 10
109.408267
 20
113.827883
 30
0.0
  0
LWPOLYLINE
  5
2a5
100
AcDbEntity
  8
Layer_1
 62
7
100
AcDbPolyline
 90
7
 70
0
 10
109.874029
 20
114.493066
 30
0.0
 10
109.482419
 20
114.544051
 30
0.0
 10
109.811464
 20
116.289280
 30
0.0
 10
111.500717
 20
116.289280
 30
0.0
 10
111.500717
 20
115.890638
 30
0.0
 10
110.145144
 20
115.890638
 30
0.0
 10
109.962083
 20
114.977465
 30
0.0
  0
LWPOLYLINE
  5
2a6
100
AcDbEntity
  8
Layer_1
 62
7
100
AcDbPolyline
 90
1
 70
1
 10
109.408267
 20
113.827883
 30
0.0
  0
LWPOLYLINE
  5
2a7
100
AcDbEntity
  8
Layer_1
 62
7
100
AcDbPolyline
 90
4
 70
1
 10
34.243836
 20
183.851205
 30
0.0
 10
116.422664
 20
183.851205
 30
0.0
 10
116.422664
 20
49.287664
 30
0.0
 10
34.243836
 20
49.287664
 30
0.0
  0
ENDSEC
  0
SECTION
  2
OBJECTS
  0
DICTIONARY
  5
C
330
0
100
AcDbDictionary
  3
ACAD_GROUP
350
D
  3
ACAD_MLINESTYLE
350
17
  0
DICTIONARY
  5
D
330
C
100
AcDbDictionary
  0
DICTIONARY
  5
1A
330
C
100
AcDbDictionary
  0
DICTIONARY
  5
17
330
C
100
AcDbDictionary
  3
STANDARD
350
18
  0
DICTIONARY
  5
19
330
C
100
AcDbDictionary
  0
ENDSEC
  0
EOF
